<svg width="31" height="31" viewBox="0 0 31 31" fill="none" xmlns="http://www.w3.org/2000/svg">
<rect width="31" height="31" fill="#1E1E1E"/>
<path d="M-1298 -2561C-1298 -2562.1 -1297.1 -2563 -1296 -2563H3396C3397.1 -2563 3398 -2562.1 3398 -2561V2020C3398 2021.1 3397.1 2022 3396 2022H-1296C-1297.1 2022 -1298 2021.1 -1298 2020V-2561Z" fill="#404040"/>
<path d="M-1296 -2562H3396V-2564H-1296V-2562ZM3397 -2561V2020H3399V-2561H3397ZM3396 2021H-1296V2023H3396V2021ZM-1297 2020V-2561H-1299V2020H-1297ZM-1296 2021C-1296.55 2021 -1297 2020.55 -1297 2020H-1299C-1299 2021.66 -1297.66 2023 -1296 2023V2021ZM3397 2020C3397 2020.55 3396.55 2021 3396 2021V2023C3397.66 2023 3399 2021.66 3399 2020H3397ZM3396 -2562C3396.55 -2562 3397 -2561.55 3397 -2561H3399C3399 -2562.66 3397.66 -2564 3396 -2564V-2562ZM-1296 -2564C-1297.66 -2564 -1299 -2562.66 -1299 -2561H-1297C-1297 -2561.55 -1296.55 -2562 -1296 -2562V-2564Z" fill="white" fill-opacity="0.1"/>
<g clip-path="url(#clip0_1_3)">
<rect x="-681" y="-1561" width="1440" height="2508" rx="10" fill="white"/>
<rect x="-601" y="-336" width="1280" height="417" rx="20" fill="#1E303A"/>
<circle cx="15.5" cy="15.5" r="15.5" fill="#9AB0BD"/>
<path d="M18.6004 9.2998L12.4004 15.4998L18.6004 21.6998" stroke="#142129" stroke-width="2"/>
</g>
<defs>
<clipPath id="clip0_1_3">
<rect x="-681" y="-1561" width="1440" height="2508" rx="10" fill="white"/>
</clipPath>
</defs>
</svg>
