<svg width="31" height="31" viewBox="0 0 31 31" fill="none" xmlns="http://www.w3.org/2000/svg">
<rect width="31" height="31" fill="#1E1E1E"/>
<path d="M-1345 -2561C-1345 -2562.1 -1344.1 -2563 -1343 -2563H3349C3350.1 -2563 3351 -2562.1 3351 -2561V2020C3351 2021.1 3350.1 2022 3349 2022H-1343C-1344.1 2022 -1345 2021.1 -1345 2020V-2561Z" fill="#404040"/>
<path d="M-1343 -2562H3349V-2564H-1343V-2562ZM3350 -2561V2020H3352V-2561H3350ZM3349 2021H-1343V2023H3349V2021ZM-1344 2020V-2561H-1346V2020H-1344ZM-1343 2021C-1343.55 2021 -1344 2020.55 -1344 2020H-1346C-1346 2021.66 -1344.66 2023 -1343 2023V2021ZM3350 2020C3350 2020.55 3349.55 2021 3349 2021V2023C3350.66 2023 3352 2021.66 3352 2020H3350ZM3349 -2562C3349.55 -2562 3350 -2561.55 3350 -2561H3352C3352 -2562.66 3350.66 -2564 3349 -2564V-2562ZM-1343 -2564C-1344.66 -2564 -1346 -2562.66 -1346 -2561H-1344C-1344 -2561.55 -1343.55 -2562 -1343 -2562V-2564Z" fill="white" fill-opacity="0.1"/>
<g clip-path="url(#clip0_1_3)">
<rect x="-728" y="-1561" width="1440" height="2508" rx="10" fill="white"/>
<rect x="-648" y="-336" width="1280" height="417" rx="20" fill="#1E303A"/>
<circle cx="15.5" cy="15.5" r="15.5" fill="#1784E8"/>
<path d="M12.3996 21.7002L18.5996 15.5002L12.3996 9.3002" stroke="white" stroke-width="2"/>
</g>
<defs>
<clipPath id="clip0_1_3">
<rect x="-728" y="-1561" width="1440" height="2508" rx="10" fill="white"/>
</clipPath>
</defs>
</svg>
