<svg width="32" height="31" viewBox="0 0 32 31" fill="none" xmlns="http://www.w3.org/2000/svg">
<path d="M5.04169 20.2583C4.77545 19.9042 4.43503 19.6204 4.12634 19.307C3.47295 18.6434 2.79769 17.9974 2.22704 17.2614C1.67312 16.5469 1.19851 15.7797 0.855093 14.9325C0.65273 14.4329 0.450795 13.9349 0.321317 13.4131C0.017773 12.1904 -0.0679736 10.9493 0.052501 9.6953C0.0572171 9.69059 0.0662202 9.68502 0.0662202 9.67988C0.0662202 9.66276 0.0627905 9.64563 0.0610755 9.62808C0.0743663 9.52662 0.088086 9.42558 0.101377 9.32455L0.11381 9.3177L0.104378 9.30828C0.193554 8.60145 0.359904 7.91218 0.621432 7.25117C0.984999 6.332 1.4446 5.46592 2.06413 4.6846C2.62791 3.97307 3.26673 3.34288 3.99472 2.80773C4.88349 2.15442 5.85714 1.66808 6.92298 1.35641C7.51849 1.18217 8.12601 1.073 8.7331 0.989941C9.24758 0.919729 9.77578 0.904317 10.3057 0.963825C10.8635 1.02633 11.4226 1.08027 11.9718 1.19201C12.3598 1.27121 12.7379 1.39837 13.1182 1.51139C13.2927 1.56319 13.4616 1.63383 13.6327 1.69591C13.6391 1.69762 13.6455 1.69933 13.652 1.70105C14.2008 1.92367 14.7182 2.20751 15.2216 2.51747C15.4347 2.6489 15.64 2.7936 15.8437 2.93916C15.956 3.01922 16.0255 3.0342 16.1648 2.94045C16.8919 2.45025 17.6366 1.9896 18.4735 1.69548C19.0883 1.47971 19.704 1.27592 20.3497 1.17446C20.3685 1.17146 20.3848 1.1522 20.4024 1.14021L20.4118 1.15006L20.4196 1.14021C20.5006 1.12608 20.5816 1.11195 20.6627 1.09783L20.6721 1.10896L20.6789 1.0944C21.2222 1.01991 21.7692 0.954407 22.3163 0.9878C22.9521 1.02676 23.5866 1.08027 24.2152 1.21599C24.7138 1.32344 25.2047 1.4506 25.6763 1.63554C26.7503 2.05724 27.7415 2.61251 28.617 3.38355C29.2515 3.94224 29.8007 4.56558 30.2762 5.25357C30.6475 5.79086 30.9429 6.37438 31.1915 6.98317C31.3497 7.37061 31.5161 7.75763 31.6035 8.1622C31.7249 8.72304 31.8814 9.27574 31.9131 9.85969C31.9427 10.4064 31.9881 10.9514 31.9452 11.4972C31.8835 12.2918 31.7742 13.0826 31.5307 13.8429C31.3043 14.5493 31.029 15.2416 30.6668 15.8902C30.4052 16.3581 30.1004 16.8012 29.7831 17.237C29.2211 18.0102 28.5055 18.6293 27.8277 19.2881C27.1944 19.9038 26.5719 20.5314 25.949 21.1577C25.3316 21.7781 24.7069 22.3911 24.0912 23.0123C23.6505 23.4572 23.2042 23.8973 22.7677 24.3468C22.0745 25.0609 21.3606 25.7544 20.6562 26.4574C19.8939 27.2177 19.1466 27.9939 18.3664 28.7354C17.8283 29.2466 17.2383 29.7025 16.5266 29.9594C16.0383 30.1358 15.5397 30.1045 15.0831 29.8824C14.72 29.7055 14.3774 29.4718 14.073 29.1999C12.6067 27.892 11.2781 26.4437 9.87782 25.0682C9.14126 24.3446 8.41498 23.6113 7.68313 22.883C7.29555 22.4973 6.90454 22.1154 6.51997 21.7271C6.16155 21.3649 5.82027 20.9852 5.44942 20.6359C5.31522 20.5096 5.2089 20.3494 5.04212 20.257L5.04169 20.2583ZM30.5021 10.662C30.5128 9.7227 30.2839 8.58519 29.8054 7.50547C29.5173 6.85559 29.1559 6.24766 28.7199 5.67612C28.1085 4.87469 27.3578 4.24064 26.5145 3.71577C25.7723 3.25383 24.9564 2.93317 24.1041 2.74308C23.3358 2.57141 22.5504 2.46181 21.7576 2.53288C21.0665 2.59496 20.3878 2.71526 19.7087 2.88008C18.6077 3.14723 17.6576 3.6721 16.7976 4.37379C16.0237 5.00526 15.3223 5.71594 14.6419 6.44888C14.1476 6.98145 13.6022 7.46694 13.0925 7.98625C12.2003 8.89471 11.2811 9.77407 10.3426 10.6342C10.0124 10.9364 9.66774 11.225 9.40664 11.597C9.1927 11.9022 9.20214 12.1565 9.48167 12.4066C9.606 12.5179 9.75049 12.6146 9.90055 12.6874C10.7533 13.1001 11.5585 12.9824 12.2963 12.419C12.9 11.9583 13.4445 11.4283 13.989 10.9C14.5365 10.3692 15.0797 9.83401 15.6272 9.30271C15.9016 9.03642 16.2291 9.01973 16.5284 9.25091C17.0484 9.65248 17.6028 9.99798 18.1768 10.3182C18.6999 10.6098 19.262 10.7819 19.8391 10.8812C20.2952 10.9595 20.7544 10.8444 21.1836 10.6667C21.686 10.4582 22.1461 10.1739 22.5774 9.84128C22.8175 9.65634 23.0936 9.69059 23.3075 9.90978C23.5802 10.1893 23.6145 10.4865 23.4456 10.7446C23.1459 11.2027 22.7167 11.5015 22.2503 11.7537C21.7139 12.0435 21.1801 12.3458 20.546 12.3796C19.99 12.4091 19.4305 12.4104 18.8881 12.3004C18.4928 12.2199 18.113 12.0589 17.7391 11.8881C17.1878 11.6364 16.6981 11.2956 16.2407 10.912C16.0928 10.7879 16.0649 10.8362 15.971 10.933C15.0745 11.8599 14.2162 12.8274 13.1504 13.5745C12.5343 14.006 11.9109 14.4166 11.1374 14.5073C11.0766 14.5146 11.0328 14.5446 10.9908 14.5861C10.8142 14.7616 10.6341 14.9342 10.4575 15.1101C9.6656 15.9 8.86901 16.6852 8.08528 17.4828C7.59224 17.9845 7.0606 18.449 6.61043 18.9936C6.45009 19.188 6.47495 19.4405 6.61986 19.5951C6.83423 19.8237 7.06746 20.0339 7.28655 20.2583C7.64754 20.6277 7.92708 20.5669 8.25935 20.257C8.81199 19.7419 9.34791 19.2094 9.88983 18.6832C10.8969 17.7054 11.9019 16.7259 12.9098 15.7493C13.2923 15.3786 13.6717 15.0044 14.0679 14.6486C14.3783 14.3699 14.6604 14.3601 15.0321 14.5463C15.2387 14.6499 15.3673 14.8297 15.52 14.9873C15.7249 15.1983 15.7211 15.2942 15.508 15.5031C15.3249 15.6825 15.1427 15.8628 14.9609 16.0439C13.9975 17.0041 13.035 17.9657 12.0708 18.9255C11.2176 19.7745 10.3567 20.6157 9.51125 21.4724C9.19699 21.7905 9.17513 22.0735 9.49196 22.4322C9.62873 22.5868 9.7775 22.7311 9.92413 22.8766C10.2615 23.2118 10.7747 23.2457 11.1284 22.8766C11.5177 22.4703 11.9328 22.088 12.3375 21.6963C13.3064 20.7579 14.2771 19.8216 15.2447 18.8819C15.899 18.2465 16.5494 17.6073 17.2028 16.9716C17.3743 16.8046 17.5187 16.8123 17.6787 16.9866C17.8716 17.1964 18.0667 17.404 18.2587 17.6146C18.4654 17.8411 18.4671 18.0115 18.2532 18.2255C17.412 19.0668 16.5678 19.9051 15.7249 20.7442C14.5789 21.8851 13.4316 23.0243 12.2886 24.1683C12.1 24.3571 12.0438 24.5865 12.1231 24.8528C12.187 25.0665 12.3225 25.2377 12.4635 25.3875C12.7066 25.6461 12.9994 25.8109 13.3934 25.7544C13.6773 25.7138 13.8406 25.5168 14.0151 25.3524C14.8027 24.6105 15.5689 23.8463 16.3453 23.0924C17.5518 21.9215 18.7608 20.7527 19.9685 19.5831C20.1349 19.4221 20.2155 19.4131 20.3745 19.5763C20.6031 19.8109 20.8217 20.0549 21.0429 20.2964C21.256 20.5293 21.2492 20.608 21.0249 20.8289C20.4671 21.3791 19.9111 21.9309 19.3563 22.4836C18.5691 23.2671 17.7837 24.0527 16.997 24.8365C16.3462 25.4851 15.6885 26.1269 15.0462 26.7836C14.8447 26.9896 14.6994 27.2404 14.8739 27.5444C15.0231 27.8047 15.189 28.0543 15.4188 28.2508C15.8402 28.6113 16.1541 28.6292 16.5622 28.2516C17.1685 27.6917 17.731 27.0889 18.3209 26.5131C19.5437 25.3203 20.7055 24.0664 21.9613 22.9062C22.6207 22.297 23.2565 21.6625 23.9039 21.0404C24.8137 20.1671 25.7252 19.2954 26.6349 18.4225C27.1391 17.9387 27.6729 17.4815 28.1389 16.963C28.9865 16.0195 29.6314 14.9385 30.0275 13.7337C30.3276 12.821 30.5034 11.874 30.5013 10.6603L30.5021 10.662ZM9.13225 2.51361C9.05379 2.51361 8.97362 2.52346 8.89731 2.51104C8.81242 2.49734 8.74939 2.55129 8.67265 2.55899C7.68784 2.65532 6.76521 2.96185 5.89359 3.41651C5.06999 3.84635 4.34285 4.40761 3.70833 5.09088C2.96147 5.89532 2.37839 6.79822 1.99296 7.82485C1.72114 8.54922 1.54107 9.29972 1.48276 10.0695C1.41888 10.915 1.46004 11.7635 1.6281 12.5958C1.81803 13.5342 2.15802 14.42 2.64292 15.2518C3.16469 16.1466 3.81337 16.9343 4.57394 17.633C4.79774 17.8385 5.22862 17.8514 5.44299 17.648C5.96776 17.151 6.48224 16.6432 7.00658 16.1458C7.70028 15.4877 8.34509 14.7801 9.06408 14.1486C9.17641 14.0497 9.15369 14.003 9.04565 13.9332C8.69751 13.7072 8.39783 13.4246 8.10715 13.1309C7.46147 12.4785 7.41045 11.7575 7.98024 11.0751C8.1393 10.8846 8.32666 10.7168 8.5033 10.5413C9.35605 9.69187 10.2058 8.83863 11.065 7.99524C11.591 7.4785 12.1351 6.9806 12.6646 6.46728C13.0663 6.0777 13.4681 5.68811 13.8633 5.29167C14.2008 4.95303 14.5703 4.64222 14.9253 4.31856C15.0244 4.22823 15.0398 4.18327 14.915 4.10279C14.2681 3.68751 13.592 3.3249 12.876 3.04833C12.1986 2.78675 11.4903 2.62835 10.7709 2.52218C10.2247 2.44169 9.67932 2.4541 9.13311 2.51361H9.13225Z" fill="#060507"/>
<path d="M30.5021 10.6624C30.5047 11.8761 30.3285 12.8227 30.0284 13.7359C29.6322 14.9406 28.987 16.0216 28.1398 16.9652C27.6742 17.4836 27.1404 17.9409 26.6358 18.4246C25.7256 19.2976 24.8145 20.1692 23.9047 21.0426C23.2569 21.6642 22.6215 22.2991 21.9621 22.9083C20.7064 24.0685 19.5445 25.3225 18.3217 26.5152C17.7318 27.091 17.1693 27.6938 16.5631 28.2538C16.1545 28.6314 15.8411 28.6134 15.4196 28.253C15.1898 28.0564 15.0239 27.8064 14.8747 27.5466C14.7002 27.2426 14.8456 26.9917 15.0471 26.7858C15.6893 26.1291 16.347 25.4873 16.9978 24.8387C17.7845 24.0548 18.57 23.2697 19.3571 22.4858C19.9124 21.9331 20.468 21.3812 21.0258 20.8311C21.25 20.6102 21.2569 20.5314 21.0438 20.2985C20.823 20.0566 20.6039 19.8126 20.3754 19.5784C20.2159 19.4149 20.1357 19.4239 19.9694 19.5853C18.7616 20.7553 17.553 21.9237 16.3461 23.0946C15.5697 23.848 14.8035 24.6127 14.016 25.3546C13.8415 25.519 13.6781 25.7159 13.3943 25.7566C13.0003 25.8131 12.7075 25.6479 12.4644 25.3897C12.3233 25.2399 12.1878 25.0686 12.124 24.855C12.0446 24.5887 12.1008 24.3592 12.2894 24.1704C13.4325 23.0265 14.5797 21.8873 15.7258 20.7463C16.5686 19.9072 17.4128 19.069 18.254 18.2277C18.4679 18.0136 18.4658 17.8433 18.2596 17.6168C18.0675 17.4061 17.8724 17.1985 17.6795 16.9887C17.5196 16.8145 17.3751 16.8068 17.2036 16.9737C16.5502 17.6099 15.8998 18.2491 15.2456 18.884C14.2779 19.8233 13.3073 20.76 12.3383 21.6985C11.9336 22.0902 11.519 22.4725 11.1293 22.8788C10.7756 23.2478 10.2624 23.214 9.92497 22.8788C9.77834 22.7332 9.62957 22.5894 9.4928 22.4344C9.17597 22.0752 9.19826 21.7926 9.5121 21.4746C10.3576 20.6179 11.2185 19.7766 12.0716 18.9277C13.0359 17.9678 13.9984 17.0063 14.9617 16.046C15.1431 15.8649 15.3257 15.6847 15.5088 15.5053C15.7219 15.2964 15.7253 15.2005 15.5208 14.9894C15.3682 14.8319 15.2396 14.6521 15.0329 14.5485C14.6612 14.3622 14.3791 14.3716 14.0687 14.6508C13.6725 15.0065 13.2931 15.3811 12.9107 15.7515C11.9027 16.7284 10.8973 17.7075 9.89067 18.6854C9.34875 19.2115 8.81283 19.7441 8.26019 20.2591C7.92792 20.5687 7.64839 20.6299 7.28739 20.2604C7.06831 20.0361 6.83508 19.8259 6.62071 19.5973C6.4758 19.4427 6.45093 19.1897 6.61128 18.9958C7.06145 18.4512 7.59308 17.9871 8.08612 17.4849C8.86985 16.6869 9.66644 15.9022 10.4583 15.1123C10.635 14.9363 10.815 14.7638 10.9917 14.5883C11.0337 14.5467 11.0774 14.5163 11.1383 14.5095C11.9117 14.4192 12.5351 14.0086 13.1512 13.5766C14.217 12.8296 15.0754 11.862 15.9718 10.9351C16.0657 10.8384 16.0932 10.79 16.2415 10.9142C16.6986 11.2978 17.1886 11.6381 17.74 11.8903C18.1138 12.0611 18.4937 12.2225 18.889 12.3025C19.4317 12.413 19.9908 12.4113 20.5469 12.3818C21.1806 12.3479 21.7143 12.0457 22.2511 11.7558C22.7176 11.5037 23.1467 11.2049 23.4464 10.7468C23.6153 10.4886 23.581 10.1915 23.3084 9.91194C23.0944 9.69274 22.8183 9.65849 22.5782 9.84344C22.1469 10.1761 21.6873 10.4604 21.1844 10.6688C20.7557 10.8465 20.2965 10.9621 19.8399 10.8833C19.2624 10.784 18.7007 10.6119 18.1777 10.3204C17.6032 10.0001 17.0488 9.65421 16.5292 9.25306C16.2304 9.02231 15.9028 9.03858 15.628 9.30486C15.0809 9.83616 14.5373 10.3713 13.9898 10.9022C13.4453 11.4305 12.9008 11.9605 12.2972 12.4211C11.5589 12.9845 10.7537 13.1023 9.90139 12.6896C9.75133 12.6168 9.60642 12.52 9.48251 12.4087C9.20341 12.1587 9.19398 11.9044 9.40749 11.5992C9.66816 11.2271 10.0133 10.9386 10.3434 10.6363C11.2819 9.77622 12.2016 8.89687 13.0933 7.9884C13.6031 7.46909 14.1484 6.98404 14.6428 6.45103C15.3232 5.71809 16.0246 5.00699 16.7985 4.37594C17.6585 3.67425 18.6086 3.14938 19.7096 2.88224C20.3887 2.71741 21.0674 2.59668 21.7585 2.53503C22.5512 2.46396 23.3367 2.57356 24.105 2.74524C24.9573 2.93532 25.7732 3.25598 26.5153 3.71792C27.3586 4.24279 28.1093 4.87684 28.7207 5.67828C29.1567 6.24981 29.5182 6.85731 29.8063 7.50762C30.2847 8.58734 30.5141 9.72485 30.503 10.6641L30.5021 10.6624Z" fill="#FCC714"/>
<path d="M9.13223 2.51356C9.67844 2.45405 10.2238 2.44163 10.77 2.52212C11.4894 2.62829 12.1981 2.7867 12.8751 3.04828C13.5911 3.32484 14.2672 3.68746 14.9141 4.10273C15.0393 4.18279 15.0239 4.22774 14.9244 4.31851C14.5694 4.64216 14.1994 4.95298 13.8625 5.29162C13.4676 5.68806 13.0654 6.07764 12.6637 6.46723C12.1347 6.98097 11.5902 7.47887 11.0641 7.99518C10.2053 8.83858 9.3556 9.69139 8.50241 10.5412C8.32578 10.7172 8.13885 10.8846 7.97936 11.0751C7.40957 11.7575 7.46059 12.4784 8.10626 13.1309C8.39695 13.425 8.69706 13.7071 9.04477 13.9332C9.15281 14.0034 9.17553 14.0501 9.0632 14.1485C8.34421 14.78 7.69939 15.4877 7.0057 16.1457C6.48136 16.6432 5.96688 17.1509 5.4421 17.648C5.22731 17.8513 4.79643 17.8385 4.57306 17.633C3.81205 16.9339 3.16381 16.1466 2.64204 15.2518C2.15714 14.42 1.81715 13.5342 1.62722 12.5957C1.45873 11.7635 1.41799 10.915 1.48188 10.0694C1.54018 9.29966 1.71983 8.54874 1.99207 7.82479C2.37751 6.79817 2.96058 5.89484 3.70744 5.09083C4.34197 4.40713 5.0691 3.84586 5.8927 3.41646C6.76389 2.96223 7.68696 2.65527 8.67177 2.55894C8.74851 2.55123 8.81196 2.49729 8.89642 2.51099C8.97274 2.52341 9.05291 2.51356 9.13137 2.51356H9.13223Z" fill="#FCC714"/>
</svg>
