<svg width="143" height="42" viewBox="0 0 143 42" fill="none" xmlns="http://www.w3.org/2000/svg">
<path d="M141.966 36.4852C141.966 38.683 140.148 40.4632 137.9 40.4632H4.86365C2.61684 40.4632 0.793102 38.683 0.793102 36.4852V4.7614C0.793102 2.56463 2.61684 0.778137 4.86365 0.778137H137.899C140.148 0.778137 141.964 2.56463 141.964 4.7614L141.966 36.4852Z" fill="white"/>
<path d="M137.471 0.826132C139.919 0.826132 141.911 2.76834 141.911 5.15519V36.0862C141.911 38.4731 139.919 40.4153 137.471 40.4153H5.28736C2.83931 40.4153 0.847299 38.4731 0.847299 36.0862V5.15519C0.847299 2.76834 2.83931 0.826132 5.28736 0.826132H137.471ZM137.471 1.7238e-05H5.28736C2.38063 1.7238e-05 0 2.32113 0 5.15519V36.0862C0 38.9203 2.38063 41.2414 5.28736 41.2414H137.471C140.378 41.2414 142.759 38.9203 142.759 36.0862V5.15519C142.759 2.32113 140.378 1.7238e-05 137.471 1.7238e-05Z" fill="#A6A6A6"/>
<path d="M31.8595 20.398C31.8288 17.0749 34.6502 15.4583 34.7792 15.383C33.1813 13.1116 30.7047 12.8013 29.8344 12.7765C27.7544 12.5631 25.7367 13.9901 24.6772 13.9901C23.5964 13.9901 21.9647 12.7972 20.2062 12.8322C17.9432 12.8662 15.8261 14.1437 14.665 16.1274C12.2688 20.1722 14.0559 26.1161 16.3517 29.3855C17.5001 30.9867 18.842 32.7745 20.5985 32.7116C22.3169 32.6425 22.9588 31.6434 25.0325 31.6434C27.0871 31.6434 27.6899 32.7116 29.4812 32.6714C31.3255 32.6425 32.4866 31.063 33.5948 29.4473C34.9219 27.6121 35.4549 25.8047 35.4761 25.7119C35.4327 25.6975 31.8944 24.3808 31.8595 20.398Z" fill="black"/>
<path d="M28.4756 10.6258C29.3998 9.49889 30.0322 7.96574 29.8567 6.40991C28.5189 6.46765 26.846 7.31207 25.8827 8.41424C25.0304 9.38548 24.269 10.9774 24.4657 12.4745C25.9683 12.5837 27.5112 11.7352 28.4756 10.6258Z" fill="black"/>
<path d="M51.869 10.3196C51.869 11.5332 51.4957 12.4467 50.7502 13.0601C50.0596 13.6262 49.0783 13.9097 47.8072 13.9097C47.177 13.9097 46.6377 13.8829 46.1861 13.8293V7.19869C46.7751 7.1059 47.4096 7.05847 48.0949 7.05847C49.3057 7.05847 50.2183 7.3152 50.8337 7.82865C51.5232 8.40913 51.869 9.23911 51.869 10.3196ZM50.7005 10.3495C50.7005 9.56285 50.4869 8.9597 50.0596 8.53904C49.6324 8.11941 49.0085 7.90908 48.1869 7.90908C47.8379 7.90908 47.5407 7.93176 47.2944 7.97919V13.0199C47.4308 13.0405 47.6803 13.0498 48.043 13.0498C48.8911 13.0498 49.5457 12.8199 50.0068 12.3601C50.4678 11.9002 50.7005 11.23 50.7005 10.3495Z" fill="black"/>
<path d="M58.0647 11.3796C58.0647 12.1271 57.8458 12.7395 57.408 13.22C56.9491 13.7139 56.341 13.9603 55.5818 13.9603C54.85 13.9603 54.2673 13.7242 53.8327 13.2499C53.3991 12.7767 53.1824 12.1797 53.1824 11.46C53.1824 10.7074 53.4055 10.0898 53.8539 9.61035C54.3022 9.13092 54.905 8.89069 55.6642 8.89069C56.396 8.89069 56.984 9.12679 57.4292 9.60004C57.8522 10.0599 58.0647 10.6538 58.0647 11.3796ZM56.9152 11.4147C56.9152 10.9662 56.8158 10.5816 56.6181 10.2609C56.3854 9.87326 56.0545 9.67943 55.6241 9.67943C55.1789 9.67943 54.8405 9.87326 54.6078 10.2609C54.409 10.5816 54.3107 10.9723 54.3107 11.4342C54.3107 11.8827 54.4101 12.2673 54.6078 12.588C54.8479 12.9756 55.182 13.1695 55.6135 13.1695C56.0365 13.1695 56.3685 12.9726 56.6075 12.5777C56.8127 12.2508 56.9152 11.8632 56.9152 11.4147Z" fill="black"/>
<path d="M66.3722 8.98962L64.8124 13.8499H63.7973L63.1511 11.7394C62.9872 11.2125 62.854 10.6888 62.7504 10.1691H62.7303C62.634 10.7032 62.5008 11.2259 62.3295 11.7394L61.6432 13.8499H60.6164L59.1497 8.98962H60.2886L60.8522 11.3002C60.9886 11.8466 61.1007 12.3673 61.1906 12.8601H61.2107C61.2932 12.4539 61.4296 11.9363 61.622 11.3105L62.3295 8.99066H63.2326L63.9104 11.261C64.0743 11.8147 64.2076 12.3477 64.3101 12.8612H64.3408C64.4159 12.3611 64.529 11.8281 64.6792 11.261L65.2841 8.99066H66.3722V8.98962Z" fill="black"/>
<path d="M72.1174 13.8499H71.0092V11.0661C71.0092 10.2083 70.675 9.77942 70.0046 9.77942C69.6757 9.77942 69.4103 9.89696 69.2041 10.1331C69 10.3692 68.8964 10.6475 68.8964 10.9661V13.8489H67.7881V10.3784C67.7881 9.9516 67.7744 9.48867 67.748 8.98758H68.7219L68.7737 9.74746H68.8044C68.9334 9.51135 69.1259 9.31648 69.3786 9.1608C69.6789 8.97934 70.0152 8.88757 70.3832 8.88757C70.8485 8.88757 71.2355 9.03398 71.5432 9.32783C71.926 9.68766 72.1174 10.2248 72.1174 10.9383V13.8499V13.8499Z" fill="black"/>
<path d="M75.1735 13.8499H74.0664V6.75946H75.1735V13.8499Z" fill="black"/>
<path d="M81.6981 11.3796C81.6981 12.1271 81.4792 12.7395 81.0414 13.22C80.5825 13.7139 79.9734 13.9603 79.2152 13.9603C78.4824 13.9603 77.8997 13.7242 77.4661 13.2499C77.0326 12.7767 76.8158 12.1797 76.8158 11.46C76.8158 10.7074 77.0389 10.0898 77.4873 9.61035C77.9357 9.13092 78.5384 8.89069 79.2966 8.89069C80.0294 8.89069 80.6163 9.12679 81.0626 9.60004C81.4856 10.0599 81.6981 10.6538 81.6981 11.3796ZM80.5476 11.4147C80.5476 10.9662 80.4482 10.5816 80.2505 10.2609C80.0189 9.87326 79.6868 9.67943 79.2575 9.67943C78.8112 9.67943 78.4728 9.87326 78.2413 10.2609C78.0425 10.5816 77.9441 10.9723 77.9441 11.4342C77.9441 11.8827 78.0435 12.2673 78.2413 12.588C78.4813 12.9756 78.8155 13.1695 79.2469 13.1695C79.6699 13.1695 80.0009 12.9726 80.2399 12.5777C80.4461 12.2508 80.5476 11.8632 80.5476 11.4147Z" fill="black"/>
<path d="M87.0616 13.85H86.0665L85.9841 13.2901H85.9534C85.6129 13.7365 85.1275 13.9603 84.4973 13.9603C84.0267 13.9603 83.646 13.8128 83.3594 13.52C83.0993 13.254 82.9692 12.9231 82.9692 12.5302C82.9692 11.9364 83.223 11.4837 83.7338 11.1703C84.2435 10.8569 84.9604 10.7032 85.8836 10.7105V10.6197C85.8836 9.97946 85.5389 9.65984 84.8483 9.65984C84.3566 9.65984 83.9231 9.78047 83.5487 10.0197L83.3235 9.31032C83.7866 9.03091 84.3587 8.89069 85.0334 8.89069C86.3362 8.89069 86.9897 9.56086 86.9897 10.9012V12.6911C86.9897 13.1767 87.014 13.5633 87.0616 13.85ZM85.9111 12.1797V11.4301C84.6887 11.4095 84.0774 11.7363 84.0774 12.4096C84.0774 12.6632 84.1472 12.853 84.29 12.9798C84.4328 13.1066 84.6146 13.1695 84.8314 13.1695C85.0746 13.1695 85.302 13.0942 85.5093 12.9447C85.7176 12.7942 85.8455 12.6034 85.8931 12.3694C85.9048 12.3168 85.9111 12.2529 85.9111 12.1797Z" fill="black"/>
<path d="M93.3589 13.8499H92.3754L92.3236 13.0694H92.2929C91.9789 13.6633 91.4438 13.9602 90.6919 13.9602C90.0913 13.9602 89.5911 13.7303 89.1945 13.2704C88.798 12.8106 88.6003 12.2136 88.6003 11.4806C88.6003 10.6939 88.8149 10.0567 89.2464 9.57006C89.6641 9.1164 90.1759 8.88958 90.785 8.88958C91.4544 8.88958 91.9228 9.10919 92.1893 9.54944H92.2104V6.75946H93.3197V12.5405C93.3197 13.0137 93.3324 13.4498 93.3589 13.8499ZM92.2104 11.8002V10.9898C92.2104 10.8496 92.1999 10.7362 92.1798 10.6496C92.1174 10.3897 91.9831 10.1712 91.779 9.99485C91.5728 9.81854 91.3243 9.72987 91.0377 9.72987C90.6242 9.72987 90.3007 9.88968 90.0627 10.2103C89.8269 10.531 89.7074 10.9403 89.7074 11.4404C89.7074 11.9208 89.8206 12.3105 90.0479 12.6106C90.288 12.9302 90.6116 13.09 91.0166 13.09C91.3803 13.09 91.6711 12.957 91.8922 12.69C92.1058 12.4436 92.2104 12.1466 92.2104 11.8002Z" fill="black"/>
<path d="M102.837 11.3796C102.837 12.1271 102.618 12.7395 102.18 13.22C101.721 13.7139 101.114 13.9603 100.354 13.9603C99.6233 13.9603 99.0407 13.7242 98.605 13.2499C98.1714 12.7767 97.9547 12.1797 97.9547 11.46C97.9547 10.7074 98.1778 10.0898 98.6261 9.61035C99.0745 9.13092 99.6773 8.89069 100.438 8.89069C101.168 8.89069 101.757 9.12679 102.201 9.60004C102.624 10.0599 102.837 10.6538 102.837 11.3796ZM101.689 11.4147C101.689 10.9662 101.589 10.5816 101.391 10.2609C101.158 9.87326 100.828 9.67943 100.396 9.67943C99.9522 9.67943 99.6138 9.87326 99.3801 10.2609C99.1813 10.5816 99.083 10.9723 99.083 11.4342C99.083 11.8827 99.1824 12.2673 99.3801 12.588C99.6202 12.9756 99.9543 13.1695 100.386 13.1695C100.809 13.1695 101.142 12.9726 101.381 12.5777C101.585 12.2508 101.689 11.8632 101.689 11.4147Z" fill="black"/>
<path d="M108.796 13.8499H107.689V11.0661C107.689 10.2083 107.355 9.77942 106.683 9.77942C106.354 9.77942 106.089 9.89696 105.884 10.1331C105.678 10.3692 105.576 10.6475 105.576 10.9661V13.8489H104.467V10.3784C104.467 9.9516 104.454 9.48867 104.427 8.98758H105.4L105.452 9.74746H105.483C105.613 9.51135 105.805 9.31648 106.057 9.1608C106.358 8.97934 106.694 8.88757 107.063 8.88757C107.527 8.88757 107.914 9.03398 108.222 9.32783C108.605 9.68766 108.796 10.2248 108.796 10.9383V13.8499V13.8499Z" fill="black"/>
<path d="M116.254 9.79897H115.034V12.16C115.034 12.7601 115.251 13.0601 115.68 13.0601C115.879 13.0601 116.044 13.0436 116.174 13.0096L116.202 13.8293C115.983 13.9097 115.696 13.9499 115.342 13.9499C114.904 13.9499 114.563 13.82 114.317 13.5602C114.069 13.3004 113.947 12.8632 113.947 12.2497V9.79897H113.218V8.98961H113.947V8.0988L115.033 7.77917V8.98858H116.253V9.79897H116.254Z" fill="black"/>
<path d="M122.121 13.8499H121.012V11.0867C121.012 10.2155 120.678 9.77936 120.008 9.77936C119.494 9.77936 119.143 10.032 118.951 10.5372C118.918 10.6434 118.899 10.7733 118.899 10.9259V13.8489H117.792V6.75946H118.899V9.68863H118.92C119.269 9.15558 119.769 8.88958 120.417 8.88958C120.876 8.88958 121.256 9.03598 121.557 9.32983C121.933 9.69585 122.121 10.2402 122.121 10.9599V13.8499V13.8499Z" fill="black"/>
<path d="M128.173 11.1898C128.173 11.3837 128.158 11.5466 128.132 11.6796H124.808C124.823 12.16 124.981 12.5261 125.289 12.7797C125.57 13.0065 125.933 13.1199 126.377 13.1199C126.869 13.1199 127.317 13.0436 127.721 12.89L127.895 13.6406C127.422 13.8406 126.866 13.9406 126.222 13.9406C125.45 13.9406 124.842 13.719 124.402 13.2756C123.96 12.8323 123.741 12.2374 123.741 11.4909C123.741 10.7578 123.945 10.1475 124.357 9.66081C124.786 9.14117 125.366 8.88135 126.099 8.88135C126.816 8.88135 127.361 9.14117 127.729 9.66081C128.026 10.0732 128.173 10.5836 128.173 11.1898ZM127.115 10.9104C127.124 10.5898 127.051 10.3135 126.901 10.0804C126.708 9.78041 126.415 9.62988 126.019 9.62988C125.657 9.62988 125.362 9.77629 125.137 10.0701C124.953 10.3042 124.844 10.5836 124.808 10.9104H127.115Z" fill="black"/>
<path d="M56.728 32.4817H54.3265L53.011 28.4514H48.4385L47.1854 32.4817H44.8474L49.3776 18.7607H52.1756L56.728 32.4817ZM52.6145 26.7605L51.4248 23.1776C51.299 22.8116 51.0632 21.9497 50.7153 20.5928H50.673C50.5344 21.1764 50.3113 22.0383 50.0046 23.1776L48.8361 26.7605H52.6145V26.7605Z" fill="black"/>
<path d="M68.3782 27.4131C68.3782 29.0958 67.9118 30.4258 66.9792 31.4022C66.1438 32.2714 65.1064 32.7054 63.8681 32.7054C62.5314 32.7054 61.5713 32.2373 60.9865 31.3012H60.9442V36.513H58.6896V25.8449C58.6896 24.7871 58.6611 23.7014 58.6061 22.5879H60.5889L60.7147 24.1561H60.757C61.5089 22.9745 62.6499 22.3848 64.1811 22.3848C65.3781 22.3848 66.3775 22.8456 67.1769 23.7684C67.9785 24.6922 68.3782 25.9068 68.3782 27.4131ZM66.0814 27.4935C66.0814 26.5306 65.8593 25.7367 65.413 25.1119C64.9256 24.4602 64.271 24.1344 63.4504 24.1344C62.8941 24.1344 62.3887 24.3159 61.9371 24.6737C61.4845 25.0345 61.1884 25.5057 61.0499 26.0893C60.9801 26.3615 60.9452 26.5842 60.9452 26.7594V28.4091C60.9452 29.1288 61.1715 29.736 61.6241 30.232C62.0767 30.7279 62.6647 30.9753 63.388 30.9753C64.2371 30.9753 64.8981 30.6557 65.3707 30.0185C65.8445 29.3803 66.0814 28.539 66.0814 27.4935Z" fill="black"/>
<path d="M80.0495 27.4131C80.0495 29.0958 79.5832 30.4258 78.6494 31.4022C77.8151 32.2714 76.7777 32.7054 75.5394 32.7054C74.2028 32.7054 73.2426 32.2373 72.6588 31.3012H72.6165V36.513H70.362V25.8449C70.362 24.7871 70.3335 23.7014 70.2785 22.5879H72.2612L72.3871 24.1561H72.4294C73.1802 22.9745 74.3212 22.3848 75.8535 22.3848C77.0495 22.3848 78.0488 22.8456 78.8503 23.7684C79.6487 24.6922 80.0495 25.9068 80.0495 27.4131ZM77.7527 27.4935C77.7527 26.5306 77.5296 25.7367 77.0833 25.1119C76.5958 24.4602 75.9434 24.1344 75.1217 24.1344C74.5644 24.1344 74.06 24.3159 73.6074 24.6737C73.1548 25.0345 72.8598 25.5057 72.7212 26.0893C72.6525 26.3615 72.6165 26.5842 72.6165 26.7594V28.4091C72.6165 29.1288 72.8428 29.736 73.2933 30.232C73.7459 30.7269 74.3339 30.9753 75.0593 30.9753C75.9085 30.9753 76.5694 30.6557 77.0421 30.0185C77.5158 29.3803 77.7527 28.539 77.7527 27.4935Z" fill="black"/>
<path d="M93.0987 28.6339C93.0987 29.801 92.6831 30.7506 91.8488 31.4837C90.932 32.2848 89.6556 32.6848 88.0154 32.6848C86.5011 32.6848 85.2872 32.4002 84.3682 31.8301L84.8906 29.9979C85.8804 30.5815 86.9664 30.8743 88.1497 30.8743C88.9989 30.8743 89.6598 30.6867 90.1346 30.3134C90.6073 29.9402 90.8431 29.4391 90.8431 28.8143C90.8431 28.2575 90.6485 27.7884 90.2583 27.408C89.8702 27.0275 89.222 26.6739 88.3168 26.347C85.8529 25.4511 84.622 24.1386 84.622 22.4126C84.622 21.2847 85.0535 20.3598 85.9174 19.6402C86.7782 18.9195 87.9266 18.5596 89.3627 18.5596C90.6433 18.5596 91.7071 18.7772 92.5562 19.2112L91.9926 21.0032C91.1995 20.5825 90.3028 20.3722 89.2992 20.3722C88.5061 20.3722 87.8864 20.5629 87.4423 20.9424C87.0669 21.2816 86.8787 21.695 86.8787 22.1848C86.8787 22.7271 87.0933 23.1756 87.5248 23.5282C87.9002 23.854 88.5823 24.2066 89.572 24.5871C90.7828 25.0624 91.6722 25.6181 92.2443 26.2553C92.8143 26.8904 93.0987 27.6853 93.0987 28.6339Z" fill="black"/>
<path d="M100.553 24.2375H98.0678V29.0411C98.0678 30.2629 98.5056 30.8733 99.3833 30.8733C99.7862 30.8733 100.12 30.8393 100.385 30.7712L100.447 32.4405C100.003 32.6023 99.4182 32.6838 98.6938 32.6838C97.8034 32.6838 97.1076 32.4188 96.6053 31.8899C96.1051 31.3599 95.8534 30.4712 95.8534 29.2226V24.2355H94.373V22.5858H95.8534V20.7743L98.0678 20.1227V22.5858H100.553V24.2375Z" fill="black"/>
<path d="M111.765 27.4533C111.765 28.9741 111.319 30.2227 110.429 31.1991C109.495 32.2043 108.255 32.7054 106.71 32.7054C105.222 32.7054 104.036 32.2239 103.152 31.2609C102.268 30.298 101.826 29.0824 101.826 27.6173C101.826 26.0841 102.281 24.8283 103.193 23.8519C104.104 22.8745 105.333 22.3858 106.878 22.3858C108.366 22.3858 109.565 22.8673 110.469 23.8313C111.334 24.7665 111.765 25.9738 111.765 27.4533ZM109.426 27.5245C109.426 26.612 109.226 25.8295 108.821 25.1768C108.348 24.387 107.673 23.9932 106.797 23.9932C105.891 23.9932 105.203 24.3881 104.73 25.1768C104.325 25.8305 104.125 26.6254 104.125 27.5657C104.125 28.4782 104.325 29.2607 104.73 29.9124C105.217 30.7021 105.898 31.096 106.777 31.096C107.638 31.096 108.314 30.6939 108.801 29.8917C109.217 29.2267 109.426 28.4359 109.426 27.5245Z" fill="black"/>
<path d="M119.093 24.5211C118.87 24.4809 118.632 24.4602 118.383 24.4602C117.59 24.4602 116.976 24.752 116.545 25.3366C116.17 25.8521 115.981 26.5037 115.981 27.2904V32.4817H113.728L113.749 25.7037C113.749 24.5633 113.72 23.5251 113.664 22.5889H115.628L115.711 24.4819H115.773C116.011 23.8313 116.386 23.3075 116.9 22.9147C117.403 22.5611 117.945 22.3848 118.53 22.3848C118.738 22.3848 118.926 22.3992 119.093 22.425V24.5211Z" fill="black"/>
<path d="M129.176 27.0668C129.176 27.4606 129.15 27.7926 129.094 28.0638H122.33C122.357 29.0412 122.684 29.7887 123.312 30.3042C123.882 30.7651 124.619 30.996 125.524 30.996C126.525 30.996 127.439 30.8403 128.261 30.5279L128.614 32.0539C127.654 32.4622 126.52 32.6653 125.212 32.6653C123.638 32.6653 122.403 32.2137 121.505 31.3115C120.608 30.4094 120.158 29.1979 120.158 27.6782C120.158 26.1863 120.576 24.9439 121.413 23.953C122.288 22.8952 123.471 22.3663 124.96 22.3663C126.423 22.3663 127.53 22.8952 128.282 23.953C128.877 24.7933 129.176 25.8326 129.176 27.0668ZM127.027 26.4966C127.041 25.845 126.894 25.282 126.589 24.8067C126.199 24.1953 125.599 23.8901 124.792 23.8901C124.055 23.8901 123.456 24.1881 122.998 24.7861C122.622 25.2614 122.399 25.8316 122.33 26.4956H127.027V26.4966Z" fill="black"/>
</svg>
