<svg width="144" height="42" viewBox="0 0 144 42" fill="none" xmlns="http://www.w3.org/2000/svg">
<path d="M138.23 41.2414H6.04598C3.13925 41.2414 0.758621 38.9203 0.758621 36.0862V5.15519C0.758621 2.32113 3.13925 1.7238e-05 6.04598 1.7238e-05H138.23C141.137 1.7238e-05 143.517 2.32113 143.517 5.15519V36.0862C143.517 38.9203 141.137 41.2414 138.23 41.2414Z" fill="white"/>
<path d="M138.23 0.826132C140.678 0.826132 142.67 2.76834 142.67 5.15519V36.0862C142.67 38.4731 140.678 40.4153 138.23 40.4153H6.04598C3.59793 40.4153 1.60592 38.4731 1.60592 36.0862V5.15519C1.60592 2.76834 3.59793 0.826132 6.04598 0.826132H138.23ZM138.23 1.7238e-05H6.04598C3.13925 1.7238e-05 0.758621 2.32113 0.758621 5.15519V36.0862C0.758621 38.9203 3.13925 41.2414 6.04598 41.2414H138.23C141.137 41.2414 143.517 38.9203 143.517 36.0862V5.15519C143.517 2.32113 141.137 1.7238e-05 138.23 1.7238e-05Z" fill="#A6A6A6"/>
<path d="M11.7933 7.77268C11.4827 8.08973 11.3029 8.58334 11.3029 9.22258V32.0239C11.3029 32.6631 11.4827 33.1568 11.7933 33.4738L11.87 33.5434L24.9747 20.7715V20.4699L11.87 7.69794L11.7933 7.77268Z" fill="url(#paint0_linear_1_291)"/>
<path d="M29.3381 25.0309L24.9747 20.7715V20.4699L29.3434 16.2104L29.4412 16.2659L34.6149 19.136C36.0914 19.9505 36.0914 21.2909 34.6149 22.1105L29.4412 24.9755L29.3381 25.0309V25.0309Z" fill="url(#paint1_linear_1_291)"/>
<path d="M29.4412 24.9755L24.9747 20.6207L11.7933 33.4738C12.2837 33.9765 13.0834 34.037 13.9929 33.5344L29.4412 24.9755" fill="url(#paint2_linear_1_291)"/>
<path d="M29.4412 16.2659L13.9929 7.70702C13.0834 7.20955 12.2837 7.27012 11.7933 7.77275L24.9747 20.6207L29.4412 16.2659Z" fill="url(#paint3_linear_1_291)"/>
<path d="M50.9012 10.5617C50.9012 11.4226 50.6369 12.1121 50.1161 12.6263C49.5173 13.2359 48.7374 13.5426 47.7817 13.5426C46.8683 13.5426 46.0884 13.2308 45.4487 12.616C44.8076 11.9922 44.4877 11.2267 44.4877 10.3104C44.4877 9.39402 44.8076 8.62848 45.4487 8.00986C46.0884 7.38995 46.8683 7.07806 47.7817 7.07806C48.2364 7.07806 48.67 7.16957 49.0837 7.33969C49.4961 7.5111 49.8319 7.74308 50.0751 8.02919L49.5226 8.57306C49.0983 8.08461 48.5206 7.84361 47.7817 7.84361C47.1155 7.84361 46.5379 8.07043 46.0475 8.52796C45.5623 8.98677 45.3191 9.5809 45.3191 10.3104C45.3191 11.0398 45.5623 11.6391 46.0475 12.0979C46.5379 12.5503 47.1155 12.7823 47.7817 12.7823C48.4889 12.7823 49.0837 12.5503 49.553 12.0928C49.8623 11.7899 50.0381 11.3723 50.0844 10.8388H47.7817V10.0938H50.8537C50.8907 10.2549 50.9012 10.4109 50.9012 10.5617V10.5617Z" fill="black" stroke="black" stroke-width="0.126897" stroke-miterlimit="10"/>
<path d="M55.7749 7.97895H52.8893V9.93791H55.4907V10.6828H52.8893V12.6418H55.7749V13.4009H52.0724V7.21985H55.7749V7.97895Z" fill="black" stroke="black" stroke-width="0.126897" stroke-miterlimit="10"/>
<path d="M59.2143 13.4009H58.3974V7.97895H56.6274V7.21985H60.9855V7.97895H59.2143V13.4009V13.4009Z" fill="black" stroke="black" stroke-width="0.126897" stroke-miterlimit="10"/>
<path d="M64.1395 13.4009V7.21985H64.955V13.4009H64.1395Z" fill="black" stroke="black" stroke-width="0.126897" stroke-miterlimit="10"/>
<path d="M68.5702 13.4009H67.7599V7.97895H65.9834V7.21985H70.3468V7.97895H68.5702V13.4009Z" fill="black" stroke="black" stroke-width="0.126897" stroke-miterlimit="10"/>
<path d="M78.5977 12.6057C77.9725 13.2308 77.1979 13.5426 76.2739 13.5426C75.3447 13.5426 74.5701 13.2308 73.9449 12.6057C73.3209 11.9819 73.0103 11.2164 73.0103 10.3104C73.0103 9.40434 73.3209 8.63879 73.9449 8.01502C74.5701 7.38995 75.3447 7.07806 76.2739 7.07806C77.1926 7.07806 77.9672 7.38995 78.5924 8.02017C79.2216 8.6491 79.5323 9.40949 79.5323 10.3104C79.5323 11.2164 79.2216 11.9819 78.5977 12.6057ZM74.5489 12.0876C75.0195 12.5503 75.5919 12.7823 76.2739 12.7823C76.9507 12.7823 77.5284 12.5503 77.9937 12.0876C78.4629 11.6249 78.7008 11.0308 78.7008 10.3104C78.7008 9.58992 78.4629 8.99579 77.9937 8.53311C77.5284 8.07044 76.9507 7.83845 76.2739 7.83845C75.5919 7.83845 75.0195 8.07044 74.5489 8.53311C74.0797 8.99579 73.8418 9.58992 73.8418 10.3104C73.8418 11.0308 74.0797 11.6249 74.5489 12.0876V12.0876Z" fill="black" stroke="black" stroke-width="0.126897" stroke-miterlimit="10"/>
<path d="M80.6783 13.4009V7.21985H81.6697L84.7522 12.027H84.7879L84.7522 10.8388V7.21985H85.5678V13.4009H84.7165L81.4886 8.35656H81.4529L81.4886 9.54999V13.4009H80.6783V13.4009Z" fill="black" stroke="black" stroke-width="0.126897" stroke-miterlimit="10"/>
<path d="M72.8094 22.4276C70.3257 22.4276 68.2967 24.2706 68.2967 26.8134C68.2967 29.3356 70.3257 31.1979 72.8094 31.1979C75.2985 31.1979 77.3275 29.3356 77.3275 26.8134C77.3275 24.2706 75.2985 22.4276 72.8094 22.4276ZM72.8094 29.4709C71.4466 29.4709 70.2741 28.3741 70.2741 26.8134C70.2741 25.232 71.4466 24.1546 72.8094 24.1546C74.1722 24.1546 75.35 25.232 75.35 26.8134C75.35 28.3741 74.1722 29.4709 72.8094 29.4709V29.4709ZM62.9631 22.4276C60.474 22.4276 58.4503 24.2706 58.4503 26.8134C58.4503 29.3356 60.474 31.1979 62.9631 31.1979C65.4508 31.1979 67.4758 29.3356 67.4758 26.8134C67.4758 24.2706 65.4508 22.4276 62.9631 22.4276ZM62.9631 29.4709C61.5989 29.4709 60.4225 28.3741 60.4225 26.8134C60.4225 25.232 61.5989 24.1546 62.9631 24.1546C64.3259 24.1546 65.4983 25.232 65.4983 26.8134C65.4983 28.3741 64.3259 29.4709 62.9631 29.4709ZM51.2463 23.7718V25.6354H55.8106C55.6771 26.6768 55.3202 27.4423 54.7729 27.9759C54.1067 28.6203 53.0691 29.3356 51.2463 29.3356C48.4374 29.3356 46.2378 27.1253 46.2378 24.3866C46.2378 21.6479 48.4374 19.4376 51.2463 19.4376C52.7651 19.4376 53.8701 20.0163 54.6857 20.7664L56.0327 19.4531C54.8919 18.3911 53.3744 17.5753 51.2463 17.5753C47.3944 17.5753 44.1573 20.6311 44.1573 24.3866C44.1573 28.1421 47.3944 31.1979 51.2463 31.1979C53.3282 31.1979 54.8919 30.5329 56.1212 29.2853C57.3809 28.0571 57.7735 26.3301 57.7735 24.9356C57.7735 24.5026 57.7365 24.1044 57.6704 23.7718H51.2463ZM99.1576 25.2166C98.7862 24.2358 97.6402 22.4276 95.3058 22.4276C92.9926 22.4276 91.0667 24.2049 91.0667 26.8134C91.0667 29.2698 92.9728 31.1979 95.5279 31.1979C97.5939 31.1979 98.7862 29.9696 99.2766 29.2544L97.7433 28.2581C97.2317 28.9876 96.5351 29.4709 95.5279 29.4709C94.5272 29.4709 93.8095 29.0237 93.3495 28.1421L99.3652 25.7153L99.1576 25.2166V25.2166ZM93.0243 26.6768C92.9728 24.9859 94.3713 24.1198 95.3732 24.1198C96.1584 24.1198 96.8246 24.5026 97.0467 25.0503L93.0243 26.6768V26.6768ZM88.1348 30.9311H90.1123V18.0432H88.1348V30.9311ZM84.8963 23.4045H84.8302C84.3861 22.8916 83.5388 22.4276 82.4655 22.4276C80.2131 22.4276 78.1536 24.3557 78.1536 26.8276C78.1536 29.2853 80.2131 31.1979 82.4655 31.1979C83.5388 31.1979 84.3861 30.73 84.8302 30.2016H84.8963V30.8306C84.8963 32.5073 83.9776 33.4081 82.4959 33.4081C81.2877 33.4081 80.5382 32.5575 80.2289 31.8423L78.5092 32.5421C79.0049 33.7046 80.3175 35.1351 82.4959 35.1351C84.8144 35.1351 86.7707 33.8051 86.7707 30.5689V22.6944H84.8963V23.4045V23.4045ZM82.6347 29.4709C81.2718 29.4709 80.1311 28.3587 80.1311 26.8276C80.1311 25.2823 81.2718 24.1546 82.6347 24.1546C83.9776 24.1546 85.0364 25.2823 85.0364 26.8276C85.0364 28.3587 83.9776 29.4709 82.6347 29.4709V29.4709ZM108.416 18.0432H103.686V30.9311H105.658V26.0479H108.416C110.606 26.0479 112.754 24.5026 112.754 22.0449C112.754 19.5884 110.601 18.0432 108.416 18.0432V18.0432ZM108.467 24.2551H105.658V19.8359H108.467C109.94 19.8359 110.781 21.028 110.781 22.0449C110.781 23.0424 109.94 24.2551 108.467 24.2551ZM120.659 22.4031C119.234 22.4031 117.752 23.0166 117.143 24.3763L118.893 25.0916C119.269 24.3763 119.962 24.1443 120.694 24.1443C121.717 24.1443 122.755 24.7436 122.771 25.8017V25.937C122.414 25.736 121.65 25.4383 120.71 25.4383C118.825 25.4383 116.905 26.45 116.905 28.338C116.905 30.065 118.449 31.1772 120.184 31.1772C121.511 31.1772 122.244 30.5934 122.704 29.9142H122.771V30.9105H124.676V25.9667C124.676 23.6816 122.926 22.4031 120.659 22.4031ZM120.421 29.4657C119.776 29.4657 118.877 29.1538 118.877 28.3741C118.877 27.3766 119.998 26.9938 120.968 26.9938C121.836 26.9938 122.244 27.1807 122.771 27.4269C122.616 28.6203 121.563 29.4657 120.421 29.4657V29.4657ZM131.615 22.6854L129.348 28.2723H129.281L126.937 22.6854H124.811L128.332 30.4929L126.323 34.8374H128.383L133.81 22.6854H131.615V22.6854ZM113.838 30.9311H115.815V18.0432H113.838V30.9311Z" fill="black"/>
<defs>
<linearGradient id="paint0_linear_1_291" x1="23.8112" y1="32.2614" x2="6.5135" y2="14.5201" gradientUnits="userSpaceOnUse">
<stop stop-color="#00A0FF"/>
<stop offset="0.0066" stop-color="#00A1FF"/>
<stop offset="0.2601" stop-color="#00BEFF"/>
<stop offset="0.5122" stop-color="#00D2FF"/>
<stop offset="0.7604" stop-color="#00DFFF"/>
<stop offset="1" stop-color="#00E3FF"/>
</linearGradient>
<linearGradient id="paint1_linear_1_291" x1="36.5375" y1="20.6193" x2="10.95" y2="20.6193" gradientUnits="userSpaceOnUse">
<stop stop-color="#FFE000"/>
<stop offset="0.4087" stop-color="#FFBD00"/>
<stop offset="0.7754" stop-color="#FFA500"/>
<stop offset="1" stop-color="#FF9C00"/>
</linearGradient>
<linearGradient id="paint2_linear_1_291" x1="27.0125" y1="18.2533" x2="3.55539" y2="-5.8052" gradientUnits="userSpaceOnUse">
<stop stop-color="#FF3A44"/>
<stop offset="1" stop-color="#C31162"/>
</linearGradient>
<linearGradient id="paint3_linear_1_291" x1="8.47531" y1="41.0598" x2="18.9499" y2="30.3166" gradientUnits="userSpaceOnUse">
<stop stop-color="#32A071"/>
<stop offset="0.0685" stop-color="#2DA771"/>
<stop offset="0.4762" stop-color="#15CF74"/>
<stop offset="0.8009" stop-color="#06E775"/>
<stop offset="1" stop-color="#00F076"/>
</linearGradient>
</defs>
</svg>
