<svg width="24" height="24" viewBox="0 0 24 24" fill="none" xmlns="http://www.w3.org/2000/svg">
<circle cx="12.0841" cy="12.0355" r="2.94336" stroke="#142129" stroke-width="1.17735"/>
<path d="M13.8161 2.37361C13.4555 2.22424 12.9984 2.22424 12.0841 2.22424C11.1698 2.22424 10.7127 2.22424 10.3521 2.37361C9.87125 2.57277 9.48925 2.95476 9.2901 3.43557C9.19918 3.65505 9.16361 3.9103 9.14968 4.28263C9.12922 4.82979 8.84862 5.33626 8.37443 5.61002C7.90025 5.88379 7.32134 5.87356 6.83726 5.6177C6.50785 5.4436 6.26901 5.34678 6.03347 5.31577C5.5175 5.24784 4.99568 5.38766 4.58281 5.70448C4.27315 5.94208 4.04458 6.33798 3.58743 7.12978C3.13029 7.92158 2.90171 8.31748 2.85077 8.70446C2.78284 9.22042 2.92266 9.74224 3.23947 10.1551C3.38408 10.3436 3.58731 10.502 3.90272 10.7002C4.36641 10.9915 4.66476 11.4879 4.66473 12.0355C4.6647 12.583 4.36636 13.0793 3.90272 13.3706C3.58725 13.5688 3.38399 13.7273 3.23938 13.9157C2.92257 14.3286 2.78274 14.8504 2.85067 15.3664C2.90162 15.7534 3.13019 16.1493 3.58734 16.9411C4.04448 17.7329 4.27305 18.1288 4.58271 18.3664C4.99559 18.6832 5.51741 18.823 6.03337 18.7551C6.2689 18.7241 6.50773 18.6273 6.83711 18.4532C7.32122 18.1973 7.90017 18.1871 8.37439 18.4609C8.8486 18.7346 9.12922 19.2411 9.14969 19.7883C9.16361 20.1606 9.19919 20.4159 9.2901 20.6353C9.48925 21.1161 9.87125 21.4981 10.3521 21.6973C10.7127 21.8467 11.1698 21.8467 12.0841 21.8467C12.9984 21.8467 13.4555 21.8467 13.8161 21.6973C14.2969 21.4981 14.6789 21.1161 14.8781 20.6353C14.969 20.4159 15.0046 20.1606 15.0185 19.7883C15.039 19.2411 15.3195 18.7346 15.7937 18.4609C16.2679 18.187 16.8469 18.1972 17.331 18.4531C17.6604 18.6272 17.8992 18.724 18.1347 18.755C18.6507 18.8229 19.1725 18.6831 19.5854 18.3663C19.895 18.1287 20.1236 17.7328 20.5808 16.941C21.0379 16.1492 21.2665 15.7533 21.3174 15.3663C21.3853 14.8504 21.2455 14.3285 20.9287 13.9157C20.7841 13.7272 20.5809 13.5688 20.2654 13.3706C19.8018 13.0792 19.5034 12.583 19.5035 12.0354C19.5035 11.4878 19.8018 10.9916 20.2654 10.7003C20.5809 10.5021 20.7842 10.3437 20.9288 10.1552C21.2456 9.74231 21.3854 9.22049 21.3175 8.70452C21.2666 8.31755 21.038 7.92165 20.5809 7.12985C20.1237 6.33805 19.8951 5.94215 19.5855 5.70454C19.1726 5.38773 18.6508 5.24791 18.1348 5.31584C17.8993 5.34685 17.6605 5.44365 17.3311 5.61774C16.847 5.87361 16.268 5.88384 15.7938 5.61006C15.3196 5.33627 15.039 4.82977 15.0185 4.28258C15.0046 3.91028 14.969 3.65504 14.8781 3.43557C14.6789 2.95476 14.2969 2.57277 13.8161 2.37361Z" stroke="#142129" stroke-width="1.17735"/>
</svg>
