<svg width="13" height="13" viewBox="0 0 13 13" fill="none" xmlns="http://www.w3.org/2000/svg">
<g clip-path="url(#clip0_1_316)">
<path d="M8.30205 10.3909C7.69498 11.0716 6.81197 11.4579 5.87377 11.4579C4.07096 11.4579 2.59928 9.98622 2.59928 8.18341C2.59928 7.13484 3.07758 6.15985 3.94219 5.55278C4.08936 5.4424 4.12615 5.24004 4.01577 5.11127C3.9054 4.9641 3.70304 4.92731 3.57427 5.03769C2.58088 5.77353 1.97382 6.95087 1.97382 8.2018C1.97382 10.3725 3.73983 12.1202 5.89217 12.1202C7.01433 12.1202 8.0629 11.6603 8.79874 10.8324C8.90912 10.7037 8.90912 10.5013 8.78035 10.3725C8.63318 10.2622 8.43082 10.2622 8.30205 10.3909Z" fill="#142129"/>
<path d="M11.0247 9.78383L10.1601 9.85741L9.92094 7.04282C9.90255 6.80367 9.71859 6.61971 9.47944 6.61971H5.57948L5.46911 4.8353H8.11813C8.30209 4.8353 8.44926 4.68813 8.44926 4.50417C8.44926 4.32021 8.30209 4.17304 8.11813 4.17304H5.43231L5.39552 3.4188C6.07618 3.36361 6.60966 2.79334 6.60966 2.09429C6.60966 1.35845 6.02099 0.769775 5.28515 0.769775C4.54931 0.769775 3.96063 1.35845 3.96063 2.09429C3.96063 2.62777 4.27336 3.08767 4.73327 3.30843L4.93562 6.82207C4.93562 7.04282 5.13798 7.24517 5.37713 7.24517H9.27708L9.51623 10.0966V10.1334C9.55302 10.3357 9.75538 10.5013 9.95774 10.5013H9.97613L11.0615 10.4093C11.2455 10.3909 11.3742 10.2437 11.3558 10.0598C11.3558 9.8942 11.2087 9.76543 11.0247 9.78383ZM5.28515 1.45043C5.65307 1.45043 5.9658 1.76316 5.9658 2.13108C5.9658 2.499 5.65307 2.81173 5.28515 2.81173C4.91723 2.81173 4.60449 2.499 4.60449 2.13108C4.60449 1.76316 4.89883 1.45043 5.28515 1.45043Z" fill="#142129"/>
</g>
<defs>
<clipPath id="clip0_1_316">
<rect width="11.7735" height="11.7735" fill="white" transform="translate(0.778107 0.567383)"/>
</clipPath>
</defs>
</svg>
