<svg width="12" height="13" viewBox="0 0 12 13" fill="none" xmlns="http://www.w3.org/2000/svg">
<g clip-path="url(#clip0_1_312)">
<path d="M7.60411 10.3909C6.99704 11.0716 6.11403 11.4579 5.17584 11.4579C3.37303 11.4579 1.90134 9.98622 1.90134 8.18341C1.90134 7.13484 2.37964 6.15985 3.24425 5.55278C3.39142 5.4424 3.42821 5.24004 3.31784 5.11127C3.20746 4.9641 3.00511 4.92731 2.87633 5.03769C1.88295 5.77353 1.27588 6.95087 1.27588 8.2018C1.27588 10.3725 3.0419 12.1202 5.19423 12.1202C6.31639 12.1202 7.36496 11.6603 8.1008 10.8324C8.21118 10.7037 8.21118 10.5013 8.08241 10.3725C7.93524 10.2622 7.73288 10.2622 7.60411 10.3909Z" fill="#142129"/>
<path d="M10.3266 9.78383L9.462 9.85741L9.22286 7.04282C9.20446 6.80367 9.0205 6.61971 8.78135 6.61971H4.88139L4.77102 4.8353H7.42004C7.604 4.8353 7.75117 4.68813 7.75117 4.50417C7.75117 4.32021 7.604 4.17304 7.42004 4.17304H4.73422L4.69743 3.4188C5.37809 3.36361 5.91157 2.79334 5.91157 2.09429C5.91157 1.35845 5.3229 0.769775 4.58706 0.769775C3.85122 0.769775 3.26254 1.35845 3.26254 2.09429C3.26254 2.62777 3.57528 3.08767 4.03518 3.30843L4.23753 6.82207C4.23753 7.04282 4.43989 7.24517 4.67904 7.24517H8.57899L8.81814 10.0966V10.1334C8.85493 10.3357 9.05729 10.5013 9.25965 10.5013H9.27804L10.3634 10.4093C10.5474 10.3909 10.6761 10.2437 10.6577 10.0598C10.6577 9.8942 10.5106 9.76543 10.3266 9.78383ZM4.58706 1.45043C4.95498 1.45043 5.26771 1.76316 5.26771 2.13108C5.26771 2.499 4.95498 2.81173 4.58706 2.81173C4.21914 2.81173 3.9064 2.499 3.9064 2.13108C3.9064 1.76316 4.20074 1.45043 4.58706 1.45043Z" fill="#142129"/>
</g>
<defs>
<clipPath id="clip0_1_312">
<rect width="11.7735" height="11.7735" fill="white" transform="translate(0.0800781 0.567383)"/>
</clipPath>
</defs>
</svg>
