<svg width="16" height="17" viewBox="0 0 16 17" fill="none" xmlns="http://www.w3.org/2000/svg">
<path d="M6.33497 3.33815C6.13249 2.83193 5.64221 2.5 5.09701 2.5H3.26316C2.56554 2.5 2 3.0654 2 3.76302C2 9.69281 6.80719 14.5 12.737 14.5C13.4346 14.5 14 13.9344 14 13.2368L14.0003 11.4026C14.0003 10.8574 13.6685 10.3672 13.1622 10.1648L11.4046 9.46196C10.9499 9.28007 10.4322 9.36193 10.056 9.67546L9.60235 10.0538C9.07258 10.4953 8.29309 10.4601 7.80546 9.97252L6.52815 8.69404C6.04052 8.20641 6.00449 7.42756 6.44596 6.89779L6.82422 6.4442C7.13774 6.06797 7.22033 5.55011 7.03844 5.09539L6.33497 3.33815Z" stroke="#1784E8" stroke-width="1.5" stroke-linecap="round" stroke-linejoin="round"/>
</svg>
