<svg width="16" height="17" viewBox="0 0 16 17" fill="none" xmlns="http://www.w3.org/2000/svg">
<path d="M2.66667 4.50001L6.73842 7.57485L6.73978 7.57598C7.1919 7.90753 7.41809 8.07341 7.66584 8.13749C7.88482 8.19413 8.115 8.19413 8.33398 8.13749C8.58195 8.07335 8.8088 7.90699 9.26172 7.57485C9.26172 7.57485 11.8734 5.57064 13.3333 4.50001M2 11.0335V5.96681C2 5.22007 2 4.84642 2.14532 4.56121C2.27316 4.31033 2.47698 4.1065 2.72786 3.97867C3.01308 3.83334 3.38673 3.83334 4.13346 3.83334H11.8668C12.6135 3.83334 12.9864 3.83334 13.2716 3.97867C13.5225 4.1065 13.727 4.31033 13.8548 4.56121C14 4.84614 14 5.21934 14 5.96462V11.0357C14 11.781 14 12.1537 13.8548 12.4386C13.727 12.6895 13.5225 12.8937 13.2716 13.0215C12.9867 13.1667 12.614 13.1667 11.8687 13.1667H4.13127C3.386 13.1667 3.0128 13.1667 2.72786 13.0215C2.47698 12.8937 2.27316 12.6895 2.14532 12.4386C2 12.1534 2 11.7802 2 11.0335Z" stroke="#1784E8" stroke-width="1.5" stroke-linecap="round" stroke-linejoin="round"/>
</svg>
