<svg width="467" height="300" viewBox="0 0 467 300" fill="none" xmlns="http://www.w3.org/2000/svg">
<g clip-path="url(#clip0_1_375)">
<rect width="467" height="300" rx="10" fill="#E1E7EB"/>
<rect x="201" y="118" width="65" height="65" rx="32.5" fill="#FDC80F"/>
<circle cx="233.5" cy="150.5" r="27.0833" stroke="#1E303A" stroke-width="3"/>
<path d="M238.612 144.907C241.524 147.282 242.979 148.469 242.979 150.5C242.979 152.531 241.524 153.719 238.612 156.093C237.809 156.749 237.012 157.366 236.279 157.881C235.636 158.332 234.909 158.799 234.155 159.257C231.251 161.023 229.799 161.906 228.496 160.928C227.194 159.951 227.075 157.904 226.839 153.81C226.772 152.652 226.729 151.518 226.729 150.5C226.729 149.483 226.772 148.348 226.839 147.19C227.075 143.097 227.194 141.05 228.496 140.072C229.799 139.094 231.251 139.977 234.155 141.744C234.909 142.202 235.636 142.668 236.279 143.12C237.012 143.634 237.809 144.251 238.612 144.907Z" stroke="#1E303A" stroke-width="3"/>
</g>
<defs>
<clipPath id="clip0_1_375">
<rect width="467" height="300" fill="white"/>
</clipPath>
</defs>
</svg>
