<svg width="32" height="30" viewBox="0 0 32 30" fill="none" xmlns="http://www.w3.org/2000/svg">
<path d="M5.04169 19.3313C4.77545 18.9772 4.43503 18.6934 4.12634 18.38C3.47295 17.7164 2.79769 17.0704 2.22704 16.3344C1.67312 15.6199 1.19851 14.8527 0.855093 14.0055C0.65273 13.5058 0.450795 13.0079 0.321317 12.4861C0.017773 11.2634 -0.0679736 10.0223 0.052501 8.76829C0.0572171 8.76359 0.0662202 8.75802 0.0662202 8.75288C0.0662202 8.73576 0.0627905 8.71863 0.0610755 8.70108C0.0743663 8.59962 0.088086 8.49858 0.101377 8.39754L0.11381 8.39069L0.104378 8.38128C0.193554 7.67445 0.359904 6.98518 0.621432 6.32417C0.984999 5.405 1.4446 4.53891 2.06413 3.7576C2.62791 3.04607 3.26673 2.41588 3.99472 1.88073C4.88349 1.22742 5.85714 0.741078 6.92298 0.429408C7.51849 0.255164 8.12601 0.145994 8.7331 0.0629387C9.24758 -0.00727264 9.77578 -0.0226849 10.3057 0.0368235C10.8635 0.0993288 11.4226 0.153272 11.9718 0.265011C12.3598 0.344212 12.7379 0.471363 13.1182 0.584387C13.2927 0.636189 13.4616 0.706828 13.6327 0.768906C13.6391 0.770618 13.6455 0.772331 13.652 0.774043C14.2008 0.996665 14.7182 1.28051 15.2216 1.59046C15.4347 1.7219 15.64 1.8666 15.8437 2.01216C15.956 2.09222 16.0255 2.1072 16.1648 2.01345C16.8919 1.52325 17.6366 1.06259 18.4735 0.768477C19.0883 0.552706 19.704 0.348922 20.3497 0.247458C20.3685 0.244461 20.3848 0.225196 20.4024 0.213208L20.4118 0.223055L20.4196 0.213208C20.5006 0.19908 20.5816 0.184952 20.6627 0.170825L20.6721 0.181956L20.6789 0.1674C21.2222 0.092907 21.7692 0.0274049 22.3163 0.0607981C22.9521 0.0997569 23.5866 0.153272 24.2152 0.288985C24.7138 0.396443 25.2047 0.523594 25.6763 0.708541C26.7503 1.13024 27.7415 1.68551 28.617 2.45655C29.2515 3.01524 29.8007 3.63858 30.2762 4.32657C30.6475 4.86386 30.9429 5.44738 31.1915 6.05617C31.3497 6.44361 31.5161 6.83063 31.6035 7.2352C31.7249 7.79604 31.8814 8.34874 31.9131 8.93269C31.9427 9.4794 31.9881 10.0244 31.9452 10.5702C31.8835 11.3648 31.7742 12.1556 31.5307 12.9159C31.3043 13.6223 31.029 14.3146 30.6668 14.9632C30.4052 15.4311 30.1004 15.8742 29.7831 16.31C29.2211 17.0832 28.5055 17.7023 27.8277 18.3611C27.1944 18.9768 26.5719 19.6044 25.949 20.2307C25.3316 20.8511 24.7069 21.4641 24.0912 22.0853C23.6505 22.5302 23.2042 22.9703 22.7677 23.4198C22.0745 24.1339 21.3606 24.8274 20.6562 25.5304C19.8939 26.2907 19.1466 27.0669 18.3664 27.8084C17.8283 28.3196 17.2383 28.7755 16.5266 29.0324C16.0383 29.2088 15.5397 29.1775 15.0831 28.9553C14.72 28.7785 14.3774 28.5448 14.073 28.2729C12.6067 26.965 11.2781 25.5167 9.87782 24.1412C9.14126 23.4176 8.41498 22.6843 7.68313 21.956C7.29555 21.5703 6.90454 21.1884 6.51997 20.8001C6.16155 20.4379 5.82027 20.0582 5.44942 19.7089C5.31522 19.5826 5.2089 19.4224 5.04212 19.33L5.04169 19.3313ZM30.5021 9.73498C30.5128 8.79569 30.2839 7.65818 29.8054 6.57847C29.5173 5.92859 29.1559 5.32066 28.7199 4.74912C28.1085 3.94768 27.3578 3.31364 26.5145 2.78877C25.7723 2.32683 24.9564 2.00617 24.1041 1.81608C23.3358 1.64441 22.5504 1.53481 21.7576 1.60588C21.0665 1.66795 20.3878 1.78825 19.7087 1.95308C18.6077 2.22023 17.6576 2.7451 16.7976 3.44678C16.0237 4.07826 15.3223 4.78894 14.6419 5.52187C14.1476 6.05445 13.6022 6.53994 13.0925 7.05925C12.2003 7.96771 11.2811 8.84707 10.3426 9.70716C10.0124 10.0094 9.66774 10.298 9.40664 10.67C9.1927 10.9752 9.20214 11.2295 9.48167 11.4796C9.606 11.5909 9.75049 11.6876 9.90055 11.7604C10.7533 12.1731 11.5585 12.0554 12.2963 11.492C12.9 11.0313 13.4445 10.5013 13.989 9.97302C14.5365 9.44215 15.0797 8.907 15.6272 8.37571C15.9016 8.10942 16.2291 8.09272 16.5284 8.32391C17.0484 8.72548 17.6028 9.07097 18.1768 9.39121C18.6999 9.68275 19.262 9.85486 19.8391 9.95418C20.2952 10.0325 20.7544 9.91736 21.1836 9.73969C21.686 9.5312 22.1461 9.24693 22.5774 8.91428C22.8175 8.72933 23.0936 8.76359 23.3075 8.98278C23.5802 9.26234 23.6145 9.55946 23.4456 9.81761C23.1459 10.2757 22.7167 10.5745 22.2503 10.8267C21.7139 11.1165 21.1801 11.4188 20.546 11.4526C19.99 11.4821 19.4305 11.4834 18.8881 11.3734C18.4928 11.2929 18.113 11.1319 17.7391 10.9611C17.1878 10.7094 16.6981 10.3686 16.2407 9.98501C16.0928 9.86085 16.0649 9.90923 15.971 10.006C15.0745 10.9329 14.2162 11.9004 13.1504 12.6475C12.5343 13.079 11.9109 13.4896 11.1374 13.5803C11.0766 13.5876 11.0328 13.6176 10.9908 13.6591C10.8142 13.8346 10.6341 14.0072 10.4575 14.1831C9.6656 14.973 8.86901 15.7582 8.08528 16.5558C7.59224 17.0575 7.0606 17.522 6.61043 18.0666C6.45009 18.261 6.47495 18.5135 6.61986 18.6681C6.83423 18.8967 7.06746 19.1069 7.28655 19.3313C7.64754 19.7007 7.92708 19.6399 8.25935 19.33C8.81199 18.8149 9.34791 18.2824 9.88983 17.7562C10.8969 16.7784 11.9019 15.7989 12.9098 14.8223C13.2923 14.4516 13.6717 14.0774 14.0679 13.7216C14.3783 13.4429 14.6604 13.4331 15.0321 13.6193C15.2387 13.7229 15.3673 13.9027 15.52 14.0603C15.7249 14.2713 15.7211 14.3672 15.508 14.5761C15.3249 14.7555 15.1427 14.9358 14.9609 15.1169C13.9975 16.0771 13.035 17.0387 12.0708 17.9985C11.2176 18.8475 10.3567 19.6887 9.51125 20.5454C9.19699 20.8635 9.17513 21.1465 9.49196 21.5052C9.62873 21.6598 9.7775 21.8041 9.92413 21.9496C10.2615 22.2848 10.7747 22.3187 11.1284 21.9496C11.5177 21.5433 11.9328 21.161 12.3375 20.7693C13.3064 19.8309 14.2771 18.8946 15.2447 17.9549C15.899 17.3195 16.5494 16.6803 17.2028 16.0446C17.3743 15.8776 17.5187 15.8853 17.6787 16.0596C17.8716 16.2694 18.0667 16.477 18.2587 16.6876C18.4654 16.9141 18.4671 17.0845 18.2532 17.2985C17.412 18.1398 16.5678 18.9781 15.7249 19.8172C14.5789 20.9581 13.4316 22.0973 12.2886 23.2413C12.1 23.4301 12.0438 23.6595 12.1231 23.9258C12.187 24.1394 12.3225 24.3107 12.4635 24.4605C12.7066 24.7191 12.9994 24.8839 13.3934 24.8274C13.6773 24.7868 13.8406 24.5898 14.0151 24.4254C14.8027 23.6835 15.5689 22.9193 16.3453 22.1654C17.5518 20.9945 18.7608 19.8257 19.9685 18.6561C20.1349 18.4951 20.2155 18.4861 20.3745 18.6493C20.6031 18.8839 20.8217 19.1279 21.0429 19.3694C21.256 19.6023 21.2492 19.681 21.0249 19.9019C20.4671 20.4521 19.9111 21.0039 19.3563 21.5566C18.5691 22.3401 17.7837 23.1257 16.997 23.9095C16.3462 24.5581 15.6885 25.1999 15.0462 25.8566C14.8447 26.0626 14.6994 26.3134 14.8739 26.6174C15.0231 26.8777 15.189 27.1273 15.4188 27.3238C15.8402 27.6843 16.1541 27.7022 16.5622 27.3246C17.1685 26.7647 17.731 26.1619 18.3209 25.5861C19.5437 24.3933 20.7055 23.1394 21.9613 21.9792C22.6207 21.37 23.2565 20.7355 23.9039 20.1134C24.8137 19.2401 25.7252 18.3684 26.6349 17.4955C27.1391 17.0117 27.6729 16.5545 28.1389 16.036C28.9865 15.0925 29.6314 14.0115 30.0275 12.8067C30.3276 11.894 30.5034 10.947 30.5013 9.73327L30.5021 9.73498ZM9.13225 1.58661C9.05379 1.58661 8.97362 1.59646 8.89731 1.58404C8.81242 1.57034 8.74939 1.62429 8.67265 1.63199C7.68784 1.72832 6.76521 2.03485 5.89359 2.48951C5.06999 2.91934 4.34285 3.48061 3.70833 4.16388C2.96147 4.96832 2.37839 5.87122 1.99296 6.89785C1.72114 7.62222 1.54107 8.37271 1.48276 9.14247C1.41888 9.988 1.46004 10.8365 1.6281 11.6688C1.81803 12.6072 2.15802 13.493 2.64292 14.3248C3.16469 15.2196 3.81337 16.0073 4.57394 16.706C4.79774 16.9115 5.22862 16.9244 5.44299 16.721C5.96776 16.224 6.48224 15.7162 7.00658 15.2188C7.70028 14.5607 8.34509 13.8531 9.06408 13.2216C9.17641 13.1227 9.15369 13.076 9.04565 13.0062C8.69751 12.7802 8.39783 12.4976 8.10715 12.2039C7.46147 11.5515 7.41045 10.8305 7.98024 10.1481C8.1393 9.95761 8.32666 9.78978 8.5033 9.61426C9.35605 8.76487 10.2058 7.91163 11.065 7.06824C11.591 6.5515 12.1351 6.0536 12.6646 5.54028C13.0663 5.1507 13.4681 4.76111 13.8633 4.36467C14.2008 4.02603 14.5703 3.71522 14.9253 3.39156C15.0244 3.30122 15.0398 3.25627 14.915 3.17579C14.2681 2.76051 13.592 2.3979 12.876 2.12133C12.1986 1.85975 11.4903 1.70135 10.7709 1.59517C10.2247 1.51469 9.67932 1.5271 9.13311 1.58661H9.13225Z" fill="#1E303A"/>
<path d="M30.5021 9.73541C30.5047 10.9491 30.3285 11.8957 30.0284 12.8089C29.6322 14.0136 28.987 15.0946 28.1398 16.0382C27.6742 16.5566 27.1404 17.0139 26.6358 17.4976C25.7256 18.3706 24.8145 19.2422 23.9047 20.1156C23.2569 20.7372 22.6215 21.3721 21.9621 21.9813C20.7064 23.1415 19.5445 24.3955 18.3217 25.5882C17.7318 26.164 17.1693 26.7668 16.5631 27.3268C16.1545 27.7044 15.8411 27.6864 15.4196 27.3259C15.1898 27.1294 15.0239 26.8794 14.8747 26.6195C14.7002 26.3156 14.8456 26.0647 15.0471 25.8588C15.6893 25.202 16.347 24.5603 16.9978 23.9117C17.7845 23.1278 18.57 22.3426 19.3571 21.5588C19.9124 21.0061 20.468 20.4542 21.0258 19.9041C21.25 19.6832 21.2569 19.6044 21.0438 19.3715C20.823 19.1296 20.6039 18.8856 20.3754 18.6514C20.2159 18.4879 20.1357 18.4969 19.9694 18.6583C18.7616 19.8283 17.553 20.9966 16.3461 22.1675C15.5697 22.921 14.8035 23.6856 14.016 24.4276C13.8415 24.592 13.6781 24.7889 13.3943 24.8296C13.0003 24.8861 12.7075 24.7208 12.4644 24.4627C12.3233 24.3128 12.1878 24.1416 12.124 23.928C12.0446 23.6617 12.1008 23.4322 12.2894 23.2434C13.4325 22.0995 14.5797 20.9602 15.7258 19.8193C16.5686 18.9802 17.4128 18.1419 18.254 17.3007C18.4679 17.0866 18.4658 16.9162 18.2596 16.6898C18.0675 16.4791 17.8724 16.2715 17.6795 16.0617C17.5196 15.8875 17.3751 15.8798 17.2036 16.0467C16.5502 16.6829 15.8998 17.3221 15.2456 17.957C14.2779 18.8963 13.3073 19.833 12.3383 20.7714C11.9336 21.1632 11.519 21.5455 11.1293 21.9518C10.7756 22.3208 10.2624 22.287 9.92497 21.9518C9.77834 21.8062 9.62957 21.6624 9.4928 21.5074C9.17597 21.1482 9.19826 20.8656 9.5121 20.5475C10.3576 19.6909 11.2185 18.8496 12.0716 18.0007C13.0359 17.0408 13.9984 16.0793 14.9617 15.119C15.1431 14.9379 15.3257 14.7577 15.5088 14.5783C15.7219 14.3694 15.7253 14.2735 15.5208 14.0624C15.3682 13.9049 15.2396 13.725 15.0329 13.6214C14.6612 13.4352 14.3791 13.4446 14.0687 13.7238C13.6725 14.0795 13.2931 14.4541 12.9107 14.8245C11.9027 15.8014 10.8973 16.7805 9.89067 17.7583C9.34875 18.2845 8.81283 18.8171 8.26019 19.3321C7.92792 19.6416 7.64839 19.7029 7.28739 19.3334C7.06831 19.1091 6.83508 18.8989 6.62071 18.6702C6.4758 18.5157 6.45093 18.2627 6.61128 18.0687C7.06145 17.5242 7.59308 17.0601 8.08612 16.5579C8.86985 15.7599 9.66644 14.9752 10.4583 14.1853C10.635 14.0093 10.815 13.8368 10.9917 13.6613C11.0337 13.6197 11.0774 13.5893 11.1383 13.5825C11.9117 13.4921 12.5351 13.0816 13.1512 12.6496C14.217 11.9025 15.0754 10.935 15.9718 10.0081C16.0657 9.91137 16.0932 9.86299 16.2415 9.98714C16.6986 10.3707 17.1886 10.7111 17.74 10.9633C18.1138 11.1341 18.4937 11.2955 18.889 11.3755C19.4317 11.486 19.9908 11.4843 20.5469 11.4547C21.1806 11.4209 21.7143 11.1187 22.2511 10.8288C22.7176 10.5767 23.1467 10.2778 23.4464 9.81975C23.6153 9.56159 23.581 9.26448 23.3084 8.98492C23.0944 8.76572 22.8183 8.73147 22.5782 8.91642C22.1469 9.24907 21.6873 9.53334 21.1844 9.74183C20.7557 9.9195 20.2965 10.0351 19.8399 9.95632C19.2624 9.857 18.7007 9.68489 18.1777 9.39334C17.6032 9.07311 17.0488 8.72719 16.5292 8.32605C16.2304 8.09529 15.9028 8.11156 15.628 8.37785C15.0809 8.90914 14.5373 9.44429 13.9898 9.97516C13.4453 10.5035 12.9008 11.0335 12.2972 11.4941C11.5589 12.0575 10.7537 12.1753 9.90139 11.7626C9.75133 11.6898 9.60642 11.593 9.48251 11.4817C9.20341 11.2317 9.19398 10.9774 9.40749 10.6721C9.66816 10.3001 10.0133 10.0115 10.3434 9.7093C11.2819 8.84921 12.2016 7.96985 13.0933 7.06138C13.6031 6.54208 14.1484 6.05702 14.6428 5.52401C15.3232 4.79107 16.0246 4.07997 16.7985 3.44892C17.6585 2.74724 18.6086 2.22236 19.7096 1.95522C20.3887 1.79039 21.0674 1.66966 21.7585 1.60801C22.5512 1.53695 23.3367 1.64654 24.105 1.81822C24.9573 2.0083 25.7732 2.32896 26.5153 2.7909C27.3586 3.31578 28.1093 3.94982 28.7207 4.75126C29.1567 5.3228 29.5182 5.9303 29.8063 6.58061C30.2847 7.66032 30.5141 8.79783 30.503 9.73712L30.5021 9.73541Z" fill="#FDC80F"/>
<path d="M9.13223 1.58662C9.67844 1.52711 10.2238 1.51469 10.77 1.59518C11.4894 1.70135 12.1981 1.85976 12.8751 2.12134C13.5911 2.3979 14.2672 2.76052 14.9141 3.17579C15.0393 3.25585 15.0239 3.3008 14.9244 3.39156C14.5694 3.71522 14.1994 4.02604 13.8625 4.36468C13.4676 4.76111 13.0654 5.1507 12.6637 5.54029C12.1347 6.05403 11.5902 6.55193 11.0641 7.06824C10.2053 7.91164 9.3556 8.76445 8.50241 9.61426C8.32578 9.79022 8.13885 9.95761 7.97936 10.1481C7.40957 10.8305 7.46059 11.5515 8.10626 12.2039C8.39695 12.4981 8.69706 12.7802 9.04477 13.0062C9.15281 13.0765 9.17553 13.1231 9.0632 13.2216C8.34421 13.8531 7.69939 14.5607 7.0057 15.2188C6.48136 15.7162 5.96688 16.224 5.4421 16.721C5.22731 16.9244 4.79643 16.9115 4.57306 16.706C3.81205 16.0069 3.16381 15.2196 2.64204 14.3248C2.15714 13.493 1.81715 12.6072 1.62722 11.6688C1.45873 10.8365 1.41799 9.98801 1.48188 9.14248C1.54018 8.37272 1.71983 7.6218 1.99207 6.89785C2.37751 5.87123 2.96058 4.9679 3.70744 4.16389C4.34197 3.48018 5.0691 2.91892 5.8927 2.48952C6.76389 2.03529 7.68696 1.72833 8.67177 1.632C8.74851 1.62429 8.81196 1.57035 8.89642 1.58405C8.97274 1.59646 9.05291 1.58662 9.13137 1.58662H9.13223Z" fill="#FDC80F"/>
</svg>
