<svg width="124" height="27" viewBox="0 0 124 27" fill="none" xmlns="http://www.w3.org/2000/svg">
<path d="M0.548587 14.7775C0.513494 10.02 0.557876 6.34674 0.426794 2.67453C0.396862 1.82424 0.541362 1.72015 1.37533 1.57585C2.59119 1.3656 3.80911 1.46866 5.02496 1.47588C6.2016 1.48309 6.53808 1.84794 6.90036 3.00846C7.21826 4.02777 7.68994 4.99762 8.03571 6.00869C8.7582 8.12256 9.73667 10.1272 10.614 12.1751C11.065 13.2294 11.4325 14.3188 11.8412 15.3917C12.1952 16.3214 12.7681 17.1428 13.1716 18.0477C13.2532 18.2312 13.4152 18.2745 13.5979 18.2642C13.8374 18.2497 13.7568 18.057 13.7961 17.9199C14.1522 16.6564 13.9344 15.368 13.9488 14.0931C13.9643 12.6708 13.921 11.2475 13.8693 9.82622C13.7754 7.25681 13.5597 4.69152 13.5989 2.11798C13.6113 1.27697 13.6423 1.29036 14.4628 1.22234C15.3185 1.15123 16.1648 1.09969 17.0194 1.22234C17.5448 1.29861 18.0278 1.81187 17.8926 2.29937C17.7698 2.74358 17.8183 3.17748 17.8173 3.61345C17.809 10.3941 17.8173 17.1737 17.8111 23.9544C17.8111 25.3128 17.7946 25.3128 16.4507 25.3159C15.3329 25.3179 14.2161 25.321 13.0983 25.3221C12.1746 25.3221 11.8071 25.1087 11.5347 24.2213C11.2002 23.1299 10.7265 22.0879 10.4457 20.9748C10.26 20.2368 9.84917 19.5752 9.49205 18.897C9.04307 18.0446 8.71486 17.1294 8.32987 16.2431C7.69923 14.7898 7.03557 13.35 6.44312 11.8813C6.12006 11.0805 5.81765 10.2725 5.45537 9.48816C5.3697 9.30265 5.24894 9.13466 5.15398 8.95326C5.07244 8.79763 4.95271 8.74507 4.77828 8.74301C4.53676 8.74094 4.5667 8.94914 4.5316 9.06766C4.39846 9.50878 4.39536 9.96845 4.39536 10.4271C4.39639 13.2758 4.36853 16.1256 4.40878 18.9743C4.43561 20.8862 4.56566 22.7959 4.63585 24.7078C4.66268 25.4447 4.64514 25.4427 3.93193 25.4385C3.00404 25.4334 2.07408 25.4076 1.14723 25.4416C0.654897 25.4602 0.539297 25.2767 0.540329 24.816C0.555811 21.1088 0.548587 17.4005 0.548587 14.7775Z" fill="#060507"/>
<path d="M21.6475 13.3695C21.6135 11.7493 21.6527 10.4569 21.9716 9.23038C22.2751 8.06162 22.5826 6.87534 23.1627 5.78388C23.5394 5.07479 23.8625 4.34612 24.329 3.68032C25.259 2.35387 26.5368 1.57985 28.0715 1.19851C29.8417 0.758418 31.6128 0.690396 33.3582 1.34177C35.7104 2.21988 37.4196 3.66177 38.0915 6.22603C38.4074 7.43189 38.684 8.62435 38.8842 9.85598C39.2475 12.0935 39.2021 14.3414 39.166 16.58C39.133 18.6134 38.6014 20.5727 37.5331 22.3568C36.6816 23.7791 35.6361 24.9581 34.0321 25.5528C32.0422 26.2918 30.0089 26.3289 27.9632 25.9012C26.4119 25.5765 25.2218 24.7015 24.3631 23.3524C23.5219 22.0311 22.7798 20.6665 22.3927 19.1422C21.8839 17.1375 21.5959 15.101 21.6486 13.3674L21.6475 13.3695ZM34.6989 13.7374C34.6989 13.7374 34.6927 13.7374 34.6886 13.7374C34.6886 13.1366 34.7144 12.5357 34.6834 11.9369C34.5874 10.0838 34.6731 8.1956 33.5563 6.54553C32.5232 5.01913 31.4105 4.33581 29.5434 4.69757C28.1541 4.9676 27.6257 6.1075 27.0528 7.12167C26.3592 8.35123 26.2333 9.78384 26.1807 11.1762C26.1084 13.0726 26.0114 14.967 26.1755 16.8727C26.3025 18.3413 26.6885 19.6544 27.604 20.8149C28.087 21.4281 28.6083 21.9187 29.4484 22.0002C30.7974 22.1311 31.9792 21.8456 32.9339 20.8314C34.2561 19.4277 34.4347 17.6168 34.6824 15.8461C34.7784 15.1566 34.6979 14.4414 34.6979 13.7385L34.6989 13.7374Z" fill="#060507"/>
<path d="M73.7942 13.4263C73.9191 15.772 73.5258 17.9384 72.8921 20.0719C72.7208 20.6491 72.5959 21.2716 72.3306 21.7828C71.25 23.8668 69.8793 25.6683 67.4073 26.2867C66.5383 26.5042 65.694 26.4661 64.8208 26.4898C63.8165 26.5166 62.9619 26.0219 61.9855 26.0002C61.5696 25.9909 61.1423 25.5076 60.7335 25.2283C59.5404 24.413 58.6455 23.2999 57.9488 22.0508C57.6526 21.5189 57.4678 20.9294 57.3904 20.2801C57.2594 19.1804 57.2965 18.0632 57.0302 16.9758C56.9064 16.4698 56.9838 15.9307 56.9311 15.402C56.7577 13.6571 56.4563 11.9091 56.6463 10.1498C56.7515 9.17379 56.9962 8.21322 57.1499 7.24131C57.375 5.81592 58.2936 4.77187 59.0739 3.6464C59.8541 2.5199 61.0246 1.88708 62.1754 1.25941C62.7906 0.924449 63.5275 0.900746 64.2397 0.868796C65.3926 0.817264 66.5589 0.900744 67.6468 1.1883C68.6521 1.45317 69.645 1.94686 70.3943 2.74767C70.6472 3.01873 70.962 3.20735 71.219 3.46501C72.0963 4.34416 72.4504 5.49745 72.8818 6.61468C73.4546 8.09985 73.4546 9.69324 73.7674 11.2268C73.918 11.9679 73.7932 12.7656 73.7932 13.4283L73.7942 13.4263ZM69.5955 12.8687C69.5955 12.4564 69.6078 12.0442 69.5934 11.6329C69.5635 10.7971 69.6006 9.96018 69.4148 9.13153C69.0422 7.466 68.1216 6.19005 66.7519 5.19753C65.8044 4.51112 64.2727 4.44412 63.383 5.19341C61.8204 6.50852 61.1629 8.27506 60.8656 10.1807C60.5643 12.1101 60.5601 14.0684 60.7294 16.0183C60.7707 16.4914 60.7975 16.9717 60.908 17.4303C61.3373 19.2154 62.259 20.6996 63.863 21.6375C64.9911 22.2971 66.0717 22.4166 67.0523 21.6251C67.8893 20.949 68.4384 20.0441 68.7491 19.0227C69.0412 18.0611 69.2734 17.0789 69.4964 16.0977C69.7389 15.032 69.5242 13.9436 69.5975 12.8687H69.5955Z" fill="#060507"/>
<path d="M103.036 5.05419C103.066 5.1789 103.094 5.30464 103.124 5.42935L103.105 5.45202L103.131 5.46851C103.165 5.6025 103.2 5.73545 103.234 5.8684C103.207 5.90345 103.176 5.94056 103.251 5.95705C103.472 7.18249 103.983 8.32342 104.276 9.53135C104.644 11.0443 104.995 12.5573 105.31 14.0827C105.756 16.2316 105.983 18.4321 106.731 20.516C107.209 21.8487 107.656 23.1916 108.116 24.5304C108.461 25.5343 108.461 25.5405 107.386 25.5446C106.544 25.5477 105.701 25.5054 104.86 25.5332C104.392 25.5487 104.133 25.3013 104.054 24.9303C103.739 23.4369 103.057 22.0404 102.914 20.5037C102.862 19.9512 102.194 19.338 101.605 19.2535C100.487 19.0927 99.3654 18.9783 98.2352 18.9577C97.8729 18.9515 97.5158 18.9649 97.1566 19.0216C95.9356 19.2143 95.5547 19.5823 95.3824 20.7974C95.2719 21.5797 95.2513 22.3712 95.1832 23.1555C95.1336 23.7306 95.0325 24.3387 94.8302 24.9035C94.7259 25.1931 94.5051 25.3302 94.1944 25.3271C93.0601 25.3158 91.9257 25.2972 90.7914 25.3003C89.8532 25.3034 89.687 24.8458 90.0689 24.0275C90.3445 23.439 90.4973 22.8206 90.7398 22.229C91.1774 21.1612 91.4241 20.0347 91.7131 18.9268C91.9546 18.0023 92.159 17.0654 92.4046 16.1399C92.5987 15.4061 92.769 14.663 93.0219 13.9497C93.3522 13.018 93.3872 12.0183 93.7361 11.0969C94.2037 9.85806 94.4896 8.56665 94.7837 7.28555C95.1408 5.72824 95.5878 4.18226 95.7085 2.57548C95.7354 2.21578 95.8097 1.85505 95.9057 1.50669C96.0264 1.06557 96.3216 0.779046 96.7995 0.754311C97.6396 0.711023 98.4808 0.702778 99.32 0.645062C100.132 0.589407 100.927 0.717209 101.724 0.827489C102.503 0.935708 102.389 1.60872 102.492 2.12611C102.682 3.08668 102.851 4.05034 103.029 5.01296L103.007 5.03873L103.036 5.05523V5.05419ZM101.13 15.3143C101.218 15.3267 101.17 15.2721 101.166 15.2401C101.288 14.6795 101.269 14.1177 101.172 13.5571C101.198 13.4726 101.193 13.3953 101.116 13.3375C101.109 13.352 101.102 13.3664 101.095 13.3819C101.028 12.6367 100.873 11.8977 100.614 11.2092C100.416 10.6836 100.296 10.1611 100.228 9.61586C100.063 8.2925 99.7122 7.01449 99.2983 5.75092C99.1662 5.34587 98.9133 5.16859 98.486 5.23868C98.067 5.3067 98.0855 5.64475 98.0731 5.93437C97.9823 7.93692 97.6376 9.90032 97.1752 11.8462C96.9172 12.9304 96.5446 13.9858 96.4124 15.1C96.3588 15.5534 96.7138 16.0399 97.1772 16.0543C98.068 16.0832 98.9577 16.11 99.8453 16.1976C100.808 16.2924 100.898 16.212 101.13 15.3154V15.3143Z" fill="#060507"/>
<path d="M76.9422 20.6604C77.546 21.018 77.9145 21.5436 78.4522 21.8673C79.634 22.5784 80.8644 22.899 82.2598 22.6702C83.069 22.5382 83.6439 22.126 84.1404 21.555C84.6255 20.9984 84.6513 20.2852 84.5852 19.606C84.5068 18.798 84.3519 18.0281 83.8586 17.2953C83.3869 16.5955 82.7655 16.1214 82.1225 15.6741C80.6662 14.661 79.0922 13.7097 78.1333 12.2276C76.6574 9.94366 76.2352 7.42268 77.4119 4.81204C77.9868 3.53713 78.9074 2.5745 79.9891 1.7036C80.7653 1.07799 81.6715 0.758493 82.5694 0.597711C83.1309 0.497738 83.7936 0.476089 84.4397 0.566787C85.446 0.709017 86.3687 1.05429 87.3193 1.3439C87.6651 1.45006 87.9386 1.68195 88.2483 1.84995C88.4227 1.9458 88.5125 2.13029 88.4485 2.32405C88.079 3.44437 87.6744 4.55541 87.7384 5.76334C87.7456 5.89938 87.695 6.00142 87.5701 6.04058C87.4504 6.07769 87.3937 5.97256 87.3307 5.89011C87.0097 5.46445 86.6629 5.06765 86.2851 4.68527C84.9919 3.37635 82.7253 3.25989 81.3526 4.92027C80.3896 6.0849 80.2502 7.76383 81.5786 9.2253C82.5426 10.2858 83.5809 11.2794 84.5604 12.3276C85.7784 13.6313 87.0345 14.9114 87.9149 16.4832C88.3762 17.3056 88.594 18.2249 88.7819 19.1443C88.9253 19.8462 88.9677 20.5439 88.7726 21.2509C88.434 22.4805 87.8767 23.606 87.0014 24.5212C86.3966 25.154 85.5275 25.387 84.6925 25.6353C82.6665 26.2383 80.628 25.7683 78.5936 25.7487C78.1395 25.7446 77.8061 25.4488 77.3819 25.3921C77.2075 25.3684 77.1951 25.1633 77.2075 25.0056C77.3117 23.7049 77.1848 22.4238 76.9185 21.1499C76.8917 21.0201 76.9278 20.8778 76.9391 20.6563L76.9422 20.6604Z" fill="#060507"/>
<path d="M118.096 16.7594C118.068 16.9789 118.041 17.1994 118.013 17.4179C117.974 17.5921 117.934 17.7663 117.893 17.9415C117.796 19.8183 117.729 21.6962 117.76 23.5771C117.767 24.0419 117.816 24.5006 117.866 24.9613C117.923 25.4838 117.759 25.6817 117.24 25.6508C116.325 25.5972 115.412 25.5024 114.5 25.4107C114.206 25.3818 114.047 25.2159 114.049 24.8953C114.058 23.574 113.994 22.2496 114.079 20.9335C114.146 19.8956 114.191 18.8557 114.267 17.8189C114.347 16.7295 113.819 15.8277 113.503 14.8712C113.001 13.3572 112.357 11.8895 111.801 10.393C111.325 9.11192 110.924 7.80093 110.425 6.53014C109.88 5.14391 109.484 3.6876 108.576 2.457C108.242 2.00454 108.425 1.73555 108.987 1.72421C109.997 1.7036 111.008 1.69122 112.017 1.64381C112.519 1.62011 112.735 1.87674 112.923 2.29312C113.242 3.00324 113.284 3.76489 113.418 4.50903C113.612 5.58915 114.018 6.60331 114.332 7.64633C114.52 8.26884 114.684 8.89857 114.888 9.51593C115.021 9.92098 115.134 10.3446 115.405 10.6857C115.729 11.0949 116.11 11.0227 116.34 10.559C116.87 9.49429 117.287 8.37294 117.637 7.2516C117.974 6.17147 118.311 5.07589 118.532 3.95454C118.621 3.50724 118.795 3.07024 118.987 2.65283C119.067 2.47968 119.128 2.3024 119.172 2.12822C119.353 1.42016 119.347 1.37378 120.086 1.45005C121.181 1.56342 122.275 1.61289 123.374 1.64278C124.051 1.66133 124.164 1.8922 123.786 2.44772C123.238 3.25163 122.754 4.0978 122.334 4.96561C121.879 5.90247 121.419 6.84242 121.157 7.87411C121.05 8.29667 120.772 8.71821 120.604 9.15933C120.077 10.5466 119.502 11.9153 118.97 13.3015C118.649 14.1353 118.316 14.9516 118.196 15.84L118.161 15.8544L118.195 15.8709C118.169 16.1173 118.144 16.3636 118.118 16.6089C118.108 16.5666 118.081 16.5656 118.075 16.6099C118.069 16.6584 118.086 16.7089 118.094 16.7594H118.096Z" fill="#060507"/>
<path d="M47.2249 1.64994C47.6182 1.87153 47.772 2.21062 47.8164 2.65792C47.997 4.46981 48.0248 6.29509 47.8803 8.09564C47.7596 9.59215 47.7049 11.0887 47.6595 12.5831C47.5965 14.6197 47.646 16.6593 47.6574 18.6969C47.6626 19.6565 47.6925 20.616 47.7111 21.5755L47.676 21.5704L47.71 21.5611C47.8143 21.9218 48.1115 21.9208 48.4057 21.9414C49.5225 22.0177 50.6289 21.8074 51.7457 21.8301C53.0627 21.8569 53.8884 22.6629 53.908 23.979C53.9245 25.1344 53.9266 25.1529 52.7964 25.255C52.1658 25.3117 51.5279 25.2983 50.8932 25.3096C48.512 25.3518 46.134 25.4745 43.7508 25.4498C43.2636 25.4446 43.083 25.3086 43.0809 24.8087C43.0561 17.4014 43.0179 9.99307 42.9839 2.58578C42.9798 1.67777 43.0179 1.64376 43.9407 1.60356C44.0429 1.59944 44.145 1.58295 44.2472 1.57264C44.303 1.6015 44.3566 1.60768 44.4031 1.55306C44.9088 1.44278 45.4177 1.46546 45.9255 1.50874C45.9131 1.51802 45.9028 1.5273 45.8914 1.53657C45.9255 1.53863 45.9585 1.54276 45.9926 1.54379C46.1412 1.54688 46.2898 1.54894 46.4384 1.551C46.6913 1.57883 46.9432 1.60666 47.195 1.63449L47.2022 1.66025L47.227 1.64891L47.2249 1.64994Z" fill="#060507"/>
<path d="M117.894 17.9415C117.935 17.7663 117.974 17.5911 118.014 17.418C118.196 17.6231 117.936 17.7911 117.97 17.9828C117.954 17.9828 117.936 17.9869 117.924 17.9797C117.911 17.9725 117.905 17.9539 117.895 17.9405L117.894 17.9415Z" fill="#FCC714"/>
</svg>
