<svg width="124" height="27" viewBox="0 0 124 27" fill="none" xmlns="http://www.w3.org/2000/svg">
<path d="M0.548587 14.8504C0.513494 10.0929 0.557876 6.41965 0.426794 2.74743C0.396862 1.89714 0.541362 1.79305 1.37533 1.64876C2.59119 1.43851 3.80911 1.54157 5.02496 1.54878C6.2016 1.556 6.53808 1.92085 6.90036 3.08136C7.21826 4.10068 7.68994 5.07053 8.03571 6.0816C8.7582 8.19546 9.73667 10.2001 10.614 12.248C11.065 13.3023 11.4325 14.3917 11.8412 15.4646C12.1952 16.3943 12.7681 17.2157 13.1716 18.1206C13.2532 18.3041 13.4152 18.3474 13.5979 18.3371C13.8374 18.3226 13.7568 18.1299 13.7961 17.9928C14.1522 16.7293 13.9344 15.4409 13.9488 14.166C13.9643 12.7437 13.921 11.3204 13.8693 9.89913C13.7754 7.32971 13.5597 4.76442 13.5989 2.19088C13.6113 1.34987 13.6423 1.36327 14.4628 1.29525C15.3185 1.22413 16.1648 1.1726 17.0194 1.29525C17.5448 1.37152 18.0278 1.88478 17.8926 2.37227C17.7698 2.81648 17.8183 3.25039 17.8173 3.68636C17.809 10.467 17.8173 17.2466 17.8111 24.0273C17.8111 25.3857 17.7946 25.3857 16.4507 25.3888C15.3329 25.3909 14.2161 25.3939 13.0983 25.395C12.1746 25.395 11.8071 25.1816 11.5347 24.2942C11.2002 23.2028 10.7265 22.1608 10.4457 21.0477C10.26 20.3097 9.84917 19.6481 9.49205 18.9699C9.04307 18.1175 8.71486 17.2023 8.32987 16.316C7.69923 14.8627 7.03557 13.4229 6.44312 11.9542C6.12006 11.1534 5.81765 10.3454 5.45537 9.56107C5.3697 9.37555 5.24894 9.20756 5.15398 9.02617C5.07244 8.87054 4.95271 8.81797 4.77828 8.81591C4.53676 8.81385 4.5667 9.02205 4.5316 9.14057C4.39846 9.58169 4.39536 10.0414 4.39536 10.5C4.39639 13.3487 4.36853 16.1985 4.40878 19.0472C4.43561 20.9591 4.56566 22.8689 4.63585 24.7807C4.66268 25.5176 4.64514 25.5156 3.93193 25.5114C3.00404 25.5063 2.07408 25.4805 1.14723 25.5145C0.654897 25.5331 0.539297 25.3496 0.540329 24.8889C0.555811 21.1817 0.548587 17.4734 0.548587 14.8504Z" fill="white"/>
<path d="M21.6475 13.4425C21.6135 11.8223 21.6527 10.5299 21.9716 9.30337C22.2751 8.13461 22.5826 6.94834 23.1627 5.85688C23.5394 5.14779 23.8625 4.41912 24.329 3.75332C25.259 2.42687 26.5368 1.65285 28.0715 1.2715C29.8417 0.831416 31.6128 0.763394 33.3582 1.41477C35.7104 2.29288 37.4196 3.73477 38.0915 6.29903C38.4074 7.50489 38.684 8.69735 38.8842 9.92898C39.2475 12.1665 39.2021 14.4144 39.166 16.653C39.133 18.6864 38.6014 20.6457 37.5331 22.4298C36.6816 23.8521 35.6361 25.0311 34.0321 25.6258C32.0422 26.3648 30.0089 26.4019 27.9632 25.9742C26.4119 25.6495 25.2218 24.7745 24.3631 23.4254C23.5219 22.1041 22.7798 20.7395 22.3927 19.2152C21.8839 17.2105 21.5959 15.174 21.6486 13.4404L21.6475 13.4425ZM34.6989 13.8104C34.6989 13.8104 34.6927 13.8104 34.6886 13.8104C34.6886 13.2095 34.7144 12.6087 34.6834 12.0099C34.5874 10.1568 34.6731 8.2686 33.5563 6.61853C32.5232 5.09213 31.4105 4.40881 29.5434 4.77057C28.1541 5.0406 27.6257 6.1805 27.0528 7.19466C26.3592 8.42423 26.2333 9.85683 26.1807 11.2492C26.1084 13.1456 26.0114 15.04 26.1755 16.9457C26.3025 18.4143 26.6885 19.7274 27.604 20.8879C28.087 21.5011 28.6083 21.9917 29.4484 22.0732C30.7974 22.204 31.9792 21.9186 32.9339 20.9044C34.2561 19.5007 34.4347 17.6898 34.6824 15.9191C34.7784 15.2296 34.6979 14.5144 34.6979 13.8115L34.6989 13.8104Z" fill="white"/>
<path d="M73.7942 13.4992C73.9191 15.8449 73.5258 18.0114 72.8921 20.1448C72.7208 20.722 72.5959 21.3445 72.3306 21.8557C71.25 23.9397 69.8793 25.7413 67.4073 26.3597C66.5383 26.5771 65.694 26.539 64.8208 26.5627C63.8165 26.5895 62.9619 26.0948 61.9855 26.0731C61.5696 26.0639 61.1423 25.5805 60.7335 25.3012C59.5404 24.4859 58.6455 23.3728 57.9488 22.1237C57.6526 21.5919 57.4678 21.0023 57.3904 20.353C57.2594 19.2533 57.2965 18.1361 57.0302 17.0487C56.9064 16.5427 56.9838 16.0037 56.9311 15.4749C56.7577 13.73 56.4563 11.9821 56.6463 10.2227C56.7515 9.24671 56.9962 8.28614 57.1499 7.31423C57.375 5.88884 58.2936 4.84479 59.0739 3.71932C59.8541 2.59282 61.0246 1.96 62.1754 1.33233C62.7906 0.997371 63.5275 0.973668 64.2397 0.941718C65.3926 0.890185 66.5589 0.973666 67.6468 1.26122C68.6521 1.5261 69.645 2.01978 70.3943 2.82059C70.6472 3.09166 70.962 3.28027 71.219 3.53793C72.0963 4.41708 72.4504 5.57038 72.8818 6.6876C73.4546 8.17277 73.4546 9.76616 73.7674 11.2998C73.918 12.0408 73.7932 12.8385 73.7932 13.5012L73.7942 13.4992ZM69.5955 12.9416C69.5955 12.5293 69.6078 12.1171 69.5934 11.7058C69.5635 10.87 69.6006 10.0331 69.4148 9.20445C69.0422 7.53892 68.1216 6.26297 66.7519 5.27046C65.8044 4.58404 64.2727 4.51705 63.383 5.26633C61.8204 6.58144 61.1629 8.34798 60.8656 10.2537C60.5643 12.183 60.5601 14.1413 60.7294 16.0913C60.7707 16.5643 60.7975 17.0446 60.908 17.5033C61.3373 19.2884 62.259 20.7725 63.863 21.7104C64.9911 22.37 66.0717 22.4896 67.0523 21.698C67.8893 21.0219 68.4384 20.117 68.7491 19.0956C69.0412 18.134 69.2734 17.1518 69.4964 16.1706C69.7389 15.1049 69.5242 14.0166 69.5975 12.9416H69.5955Z" fill="white"/>
<path d="M103.036 5.12719C103.066 5.2519 103.094 5.37764 103.124 5.50235L103.105 5.52502L103.131 5.54151C103.165 5.67549 103.2 5.80845 103.234 5.9414C103.207 5.97645 103.176 6.01355 103.251 6.03004C103.472 7.25549 103.983 8.39642 104.276 9.60434C104.644 11.1173 104.995 12.6303 105.31 14.1557C105.756 16.3046 105.983 18.505 106.731 20.589C107.209 21.9217 107.656 23.2646 108.116 24.6034C108.461 25.6073 108.461 25.6135 107.386 25.6176C106.544 25.6207 105.701 25.5784 104.86 25.6062C104.392 25.6217 104.133 25.3743 104.054 25.0033C103.739 23.5099 103.057 22.1134 102.914 20.5767C102.862 20.0242 102.194 19.411 101.605 19.3265C100.487 19.1657 99.3654 19.0513 98.2352 19.0307C97.8729 19.0245 97.5158 19.0379 97.1566 19.0946C95.9356 19.2873 95.5547 19.6553 95.3824 20.8704C95.2719 21.6527 95.2513 22.4442 95.1832 23.2285C95.1336 23.8036 95.0325 24.4117 94.8302 24.9765C94.7259 25.2661 94.5051 25.4032 94.1944 25.4001C93.0601 25.3888 91.9257 25.3702 90.7914 25.3733C89.8532 25.3764 89.687 24.9188 90.0689 24.1005C90.3445 23.512 90.4973 22.8936 90.7398 22.302C91.1774 21.2342 91.4241 20.1077 91.7131 18.9998C91.9546 18.0753 92.159 17.1384 92.4046 16.2129C92.5987 15.4791 92.769 14.736 93.0219 14.0227C93.3522 13.091 93.3872 12.0913 93.7361 11.1699C94.2037 9.93106 94.4896 8.63965 94.7837 7.35855C95.1408 5.80123 95.5878 4.25526 95.7085 2.64848C95.7354 2.28878 95.8097 1.92805 95.9057 1.57969C96.0264 1.13857 96.3216 0.852044 96.7995 0.827309C97.6396 0.784021 98.4808 0.775776 99.32 0.71806C100.132 0.662405 100.927 0.790207 101.724 0.900487C102.503 1.00871 102.389 1.68172 102.492 2.19911C102.682 3.15967 102.851 4.12333 103.029 5.08596L103.007 5.11173L103.036 5.12822V5.12719ZM101.13 15.3873C101.218 15.3997 101.17 15.3451 101.166 15.3131C101.288 14.7525 101.269 14.1907 101.172 13.6301C101.198 13.5456 101.193 13.4683 101.116 13.4105C101.109 13.425 101.102 13.4394 101.095 13.4549C101.028 12.7097 100.873 11.9707 100.614 11.2822C100.416 10.7566 100.296 10.2341 100.228 9.68886C100.063 8.3655 99.7122 7.08749 99.2983 5.82391C99.1662 5.41887 98.9133 5.24159 98.486 5.31168C98.067 5.3797 98.0855 5.71775 98.0731 6.00737C97.9823 8.00992 97.6376 9.97331 97.1752 11.9192C96.9172 13.0034 96.5446 14.0588 96.4124 15.173C96.3588 15.6264 96.7138 16.1129 97.1772 16.1273C98.068 16.1562 98.9577 16.183 99.8453 16.2706C100.808 16.3654 100.898 16.285 101.13 15.3884V15.3873Z" fill="white"/>
<path d="M76.9422 20.7333C77.546 21.091 77.9145 21.6166 78.4522 21.9402C79.634 22.6514 80.8644 22.9719 82.2598 22.7431C83.069 22.6112 83.6439 22.1989 84.1404 21.6279C84.6255 21.0714 84.6513 20.3582 84.5852 19.679C84.5068 18.8709 84.3519 18.101 83.8586 17.3682C83.3869 16.6684 82.7655 16.1943 82.1225 15.747C80.6662 14.7339 79.0922 13.7826 78.1333 12.3005C76.6574 10.0166 76.2352 7.49564 77.4119 4.88499C77.9868 3.61008 78.9074 2.64745 79.9891 1.77655C80.7653 1.15095 81.6715 0.831445 82.5694 0.670664C83.1309 0.57069 83.7936 0.549042 84.4397 0.639739C85.446 0.781969 86.3687 1.12724 87.3193 1.41685C87.6651 1.52301 87.9386 1.75491 88.2483 1.9229C88.4227 2.01875 88.5125 2.20324 88.4485 2.39701C88.079 3.51732 87.6744 4.62837 87.7384 5.83629C87.7456 5.97234 87.695 6.07437 87.5701 6.11354C87.4504 6.15064 87.3937 6.04551 87.3307 5.96306C87.0097 5.5374 86.6629 5.1406 86.2851 4.75823C84.9919 3.4493 82.7253 3.33284 81.3526 4.99322C80.3896 6.15785 80.2502 7.83678 81.5786 9.29825C82.5426 10.3588 83.5809 11.3523 84.5604 12.4005C85.7784 13.7043 87.0345 14.9844 87.9149 16.5561C88.3762 17.3786 88.594 18.2979 88.7819 19.2172C88.9253 19.9191 88.9677 20.6169 88.7726 21.3239C88.434 22.5535 87.8767 23.6789 87.0014 24.5942C86.3966 25.227 85.5275 25.4599 84.6925 25.7083C82.6665 26.3112 80.628 25.8412 78.5936 25.8217C78.1395 25.8175 77.8061 25.5217 77.3819 25.4651C77.2075 25.4414 77.1951 25.2363 77.2075 25.0786C77.3117 23.7779 77.1848 22.4968 76.9185 21.2229C76.8917 21.093 76.9278 20.9508 76.9391 20.7292L76.9422 20.7333Z" fill="white"/>
<path d="M118.096 16.8323C118.068 17.0518 118.041 17.2724 118.013 17.4909C117.974 17.6651 117.934 17.8392 117.893 18.0145C117.796 19.8913 117.729 21.7691 117.76 23.6501C117.767 24.1149 117.816 24.5735 117.866 25.0342C117.923 25.5568 117.759 25.7546 117.24 25.7237C116.325 25.6701 115.412 25.5753 114.5 25.4836C114.206 25.4547 114.047 25.2888 114.049 24.9683C114.058 23.647 113.994 22.3226 114.079 21.0064C114.146 19.9686 114.191 18.9286 114.267 17.8918C114.347 16.8024 113.819 15.9006 113.503 14.9441C113.001 13.4301 112.357 11.9625 111.801 10.466C111.325 9.18486 110.924 7.87387 110.425 6.60308C109.88 5.21685 109.484 3.76054 108.576 2.52994C108.242 2.07748 108.425 1.80848 108.987 1.79715C109.997 1.77653 111.008 1.76416 112.017 1.71675C112.519 1.69305 112.735 1.94968 112.923 2.36606C113.242 3.07618 113.284 3.83783 113.418 4.58196C113.612 5.66209 114.018 6.67625 114.332 7.71927C114.52 8.34178 114.684 8.97151 114.888 9.58887C115.021 9.99392 115.134 10.4175 115.405 10.7587C115.729 11.1678 116.11 11.0957 116.34 10.6319C116.87 9.56723 117.287 8.44588 117.637 7.32453C117.974 6.24441 118.311 5.14883 118.532 4.02748C118.621 3.58017 118.795 3.14318 118.987 2.72576C119.067 2.55261 119.128 2.37534 119.172 2.20116C119.353 1.4931 119.347 1.44672 120.086 1.52299C121.181 1.63636 122.275 1.68583 123.374 1.71572C124.051 1.73427 124.164 1.96514 123.786 2.52066C123.238 3.32457 122.754 4.17074 122.334 5.03855C121.879 5.97541 121.419 6.91536 121.157 7.94704C121.05 8.36961 120.772 8.79115 120.604 9.23227C120.077 10.6195 119.502 11.9882 118.97 13.3745C118.649 14.2083 118.316 15.0245 118.196 15.913L118.161 15.9274L118.195 15.9439C118.169 16.1902 118.144 16.4365 118.118 16.6818C118.108 16.6396 118.081 16.6385 118.075 16.6829C118.069 16.7313 118.086 16.7818 118.094 16.8323H118.096Z" fill="white"/>
<path d="M47.2249 1.72295C47.6182 1.94454 47.772 2.28363 47.8164 2.73094C47.997 4.54282 48.0248 6.36811 47.8803 8.16866C47.7596 9.66516 47.7049 11.1617 47.6595 12.6561C47.5965 14.6927 47.646 16.7323 47.6574 18.7699C47.6626 19.7295 47.6925 20.689 47.7111 21.6486L47.676 21.6434L47.71 21.6341C47.8143 21.9948 48.1115 21.9938 48.4057 22.0144C49.5225 22.0907 50.6289 21.8804 51.7457 21.9031C53.0627 21.9299 53.8884 22.7359 53.908 24.052C53.9245 25.2074 53.9266 25.2259 52.7964 25.328C52.1658 25.3847 51.5279 25.3713 50.8932 25.3826C48.512 25.4249 46.134 25.5475 43.7508 25.5228C43.2636 25.5176 43.083 25.3816 43.0809 24.8817C43.0561 17.4744 43.0179 10.0661 42.9839 2.65879C42.9798 1.75078 43.0179 1.71677 43.9407 1.67657C44.0429 1.67245 44.145 1.65596 44.2472 1.64566C44.303 1.67451 44.3566 1.6807 44.4031 1.62607C44.9088 1.51579 45.4177 1.53847 45.9255 1.58176C45.9131 1.59103 45.9028 1.60031 45.8914 1.60959C45.9255 1.61165 45.9585 1.61577 45.9926 1.6168C46.1412 1.61989 46.2898 1.62195 46.4384 1.62402C46.6913 1.65184 46.9432 1.67967 47.195 1.7075L47.2022 1.73326L47.227 1.72192L47.2249 1.72295Z" fill="white"/>
<path d="M117.894 18.0145C117.935 17.8393 117.974 17.664 118.014 17.4909C118.196 17.696 117.936 17.864 117.97 18.0557C117.954 18.0557 117.936 18.0598 117.924 18.0526C117.911 18.0454 117.905 18.0268 117.895 18.0134L117.894 18.0145Z" fill="#FDC80F"/>
</svg>
