<svg width="25" height="24" viewBox="0 0 25 24" fill="none" xmlns="http://www.w3.org/2000/svg">
<path d="M2.55666 16.843C2.55666 15.5583 2.55666 14.916 2.84581 14.4441C3.00761 14.1801 3.2296 13.9581 3.49363 13.7963C3.96549 13.5071 4.60782 13.5071 5.89247 13.5071H6.9717C8.82172 13.5071 9.74673 13.5071 10.3215 14.0819C10.8962 14.6566 10.8962 15.5816 10.8962 17.4316V18.5109C10.8962 19.7955 10.8962 20.4378 10.607 20.9097C10.4452 21.1737 10.2232 21.3957 9.95921 21.5575C9.48735 21.8467 8.84503 21.8467 7.56037 21.8467C5.63339 21.8467 4.6699 21.8467 3.96212 21.4129C3.56607 21.1702 3.23309 20.8373 2.99039 20.4412C2.55666 19.7334 2.55666 18.7699 2.55666 16.843Z" stroke="#142129" stroke-width="1.17735"/>
<path d="M13.8395 5.56006C13.8395 4.2754 13.8395 3.63308 14.1287 3.16122C14.2905 2.89719 14.5125 2.6752 14.7765 2.5134C15.2484 2.22424 15.8907 2.22424 17.1754 2.22424C19.1023 2.22424 20.0658 2.22424 20.7736 2.65798C21.1697 2.90067 21.5026 3.23366 21.7453 3.6297C22.1791 4.33749 22.1791 5.30098 22.1791 7.22796C22.1791 8.51261 22.1791 9.15494 21.8899 9.6268C21.7281 9.89083 21.5061 10.1128 21.2421 10.2746C20.7702 10.5638 20.1279 10.5638 18.8433 10.5638H17.764C15.914 10.5638 14.989 10.5638 14.4143 9.98905C13.8395 9.41432 13.8395 8.48931 13.8395 6.63929V5.56006Z" stroke="#142129" stroke-width="1.17735"/>
<path d="M16.7829 6.394C16.7829 5.88833 16.7829 5.63549 16.9096 5.45696C16.9543 5.39397 17.0093 5.33897 17.0723 5.29427C17.2508 5.1676 17.5036 5.1676 18.0093 5.1676C18.515 5.1676 18.7678 5.1676 18.9463 5.29427C19.0093 5.33897 19.0643 5.39397 19.109 5.45696C19.2357 5.63549 19.2357 5.88833 19.2357 6.394C19.2357 6.89968 19.2357 7.15252 19.109 7.33104C19.0643 7.39404 19.0093 7.44904 18.9463 7.49374C18.7678 7.62041 18.515 7.62041 18.0093 7.62041C17.5036 7.62041 17.2508 7.62041 17.0723 7.49374C17.0093 7.44904 16.9543 7.39404 16.9096 7.33104C16.7829 7.15252 16.7829 6.89968 16.7829 6.394Z" fill="#142129"/>
<path d="M13.2509 21.8467C13.2509 22.1718 13.5144 22.4353 13.8395 22.4353C14.1647 22.4353 14.4282 22.1718 14.4282 21.8467H13.2509ZM14.7116 13.8378L15.0387 14.3273L15.0387 14.3273L14.7116 13.8378ZM14.1702 14.3792L13.6808 14.0522L13.6808 14.0522L14.1702 14.3792ZM19.2357 12.9185H17.2735V14.0958H19.2357V12.9185ZM13.2509 18.9033V21.8467H14.4282V18.9033H13.2509ZM17.2735 12.9185C16.5967 12.9185 16.0449 12.9178 15.6018 12.9628C15.1489 13.0089 14.7449 13.1076 14.3846 13.3484L15.0387 14.3273C15.1733 14.2374 15.3612 14.1707 15.721 14.1341C16.0906 14.0965 16.5722 14.0958 17.2735 14.0958V12.9185ZM14.4282 16.9411C14.4282 16.2398 14.4289 15.7582 14.4665 15.3886C14.5031 15.0288 14.5698 14.8409 14.6597 14.7063L13.6808 14.0522C13.44 14.4125 13.3413 14.8165 13.2952 15.2694C13.2502 15.7125 13.2509 16.2643 13.2509 16.9411H14.4282ZM14.3846 13.3484C14.106 13.5345 13.8669 13.7736 13.6808 14.0522L14.6597 14.7063C14.7599 14.5563 14.8887 14.4275 15.0387 14.3273L14.3846 13.3484Z" fill="#142129"/>
<path d="M22.7677 13.5071C22.7677 13.182 22.5042 12.9185 22.1791 12.9185C21.854 12.9185 21.5904 13.182 21.5904 13.5071H22.7677ZM20.9677 21.6973L21.193 22.2412H21.193L20.9677 21.6973ZM22.0297 20.6353L21.4858 20.4101L21.4858 20.4101L22.0297 20.6353ZM17.2735 22.4353H19.2357V21.258H17.2735V22.4353ZM22.7677 16.9411V13.5071H21.5904V16.9411H22.7677ZM19.2357 22.4353C19.6848 22.4353 20.0511 22.4357 20.3494 22.4153C20.6531 22.3946 20.929 22.3505 21.193 22.2412L20.7425 21.1534C20.6459 21.1935 20.513 21.2241 20.2693 21.2407C20.0203 21.2577 19.7009 21.258 19.2357 21.258V22.4353ZM21.5904 18.9033C21.5904 19.3685 21.5901 19.6879 21.5731 19.9369C21.5565 20.1806 21.5259 20.3135 21.4858 20.4101L22.5736 20.8606C22.6829 20.5966 22.727 20.3207 22.7477 20.017C22.7681 19.7187 22.7677 19.3524 22.7677 18.9033H21.5904ZM21.193 22.2412C21.8181 21.9823 22.3147 21.4857 22.5736 20.8606L21.4858 20.4101C21.3464 20.7466 21.079 21.014 20.7425 21.1534L21.193 22.2412Z" fill="#142129"/>
<path d="M2.55666 7.22796C2.55666 5.30098 2.55666 4.33749 2.99039 3.6297C3.23309 3.23366 3.56607 2.90067 3.96212 2.65798C4.6699 2.22424 5.63339 2.22424 7.56037 2.22424C8.84503 2.22424 9.48735 2.22424 9.95921 2.5134C10.2232 2.6752 10.4452 2.89719 10.607 3.16122C10.8962 3.63308 10.8962 4.2754 10.8962 5.56006V6.63929C10.8962 8.48931 10.8962 9.41432 10.3215 9.98905C9.74673 10.5638 8.82172 10.5638 6.9717 10.5638H5.89247C4.60782 10.5638 3.96549 10.5638 3.49363 10.2746C3.2296 10.1128 3.00761 9.89083 2.84581 9.6268C2.55666 9.15494 2.55666 8.51261 2.55666 7.22796Z" stroke="#142129" stroke-width="1.17735"/>
<path d="M5.50002 6.394C5.50002 5.88833 5.50002 5.63549 5.62669 5.45696C5.67138 5.39397 5.72638 5.33897 5.78938 5.29427C5.9679 5.1676 6.22074 5.1676 6.72642 5.1676C7.23209 5.1676 7.48493 5.1676 7.66346 5.29427C7.72645 5.33897 7.78145 5.39397 7.82615 5.45696C7.95282 5.63549 7.95282 5.88833 7.95282 6.394C7.95282 6.89968 7.95282 7.15252 7.82615 7.33104C7.78145 7.39404 7.72645 7.44904 7.66346 7.49374C7.48493 7.62041 7.23209 7.62041 6.72642 7.62041C6.22074 7.62041 5.9679 7.62041 5.78938 7.49374C5.72638 7.44904 5.67138 7.39404 5.62669 7.33104C5.50002 7.15252 5.50002 6.89968 5.50002 6.394Z" fill="#142129"/>
<path d="M5.50002 17.6769C5.50002 17.1712 5.50002 16.9184 5.62669 16.7399C5.67138 16.6769 5.72638 16.6219 5.78938 16.5772C5.9679 16.4505 6.22074 16.4505 6.72642 16.4505C7.23209 16.4505 7.48493 16.4505 7.66346 16.5772C7.72645 16.6219 7.78145 16.6769 7.82615 16.7399C7.95282 16.9184 7.95282 17.1712 7.95282 17.6769C7.95282 18.1826 7.95282 18.4354 7.82615 18.6139C7.78145 18.6769 7.72645 18.7319 7.66346 18.7766C7.48493 18.9033 7.23209 18.9033 6.72642 18.9033C6.22074 18.9033 5.9679 18.9033 5.78938 18.7766C5.72638 18.7319 5.67138 18.6769 5.62669 18.6139C5.50002 18.4354 5.50002 18.1826 5.50002 17.6769Z" fill="#142129"/>
<path d="M16.2923 17.6769C16.2923 16.9879 16.2923 16.6435 16.4577 16.396C16.5293 16.2889 16.6213 16.1969 16.7284 16.1253C16.9758 15.96 17.3203 15.96 18.0093 15.96C18.6983 15.96 19.0428 15.96 19.2902 16.1253C19.3974 16.1969 19.4893 16.2889 19.5609 16.396C19.7263 16.6435 19.7263 16.9879 19.7263 17.6769C19.7263 18.3659 19.7263 18.7104 19.5609 18.9578C19.4893 19.065 19.3974 19.157 19.2902 19.2285C19.0428 19.3939 18.6983 19.3939 18.0093 19.3939C17.3203 19.3939 16.9758 19.3939 16.7284 19.2285C16.6213 19.157 16.5293 19.065 16.4577 18.9578C16.2923 18.7104 16.2923 18.3659 16.2923 17.6769Z" fill="#142129"/>
</svg>
