<svg width="24" height="24" viewBox="0 0 24 24" fill="none" xmlns="http://www.w3.org/2000/svg">
<path d="M2.12418 12.2355C2.12418 9.9903 2.12418 8.86769 2.63357 7.93706C3.14297 7.00643 4.07361 6.42885 5.93488 5.27369L7.89712 4.05587C9.86462 2.83479 10.8484 2.22424 11.9354 2.22424C13.0224 2.22424 14.0062 2.83478 15.9736 4.05587L17.9359 5.27369C19.7972 6.42885 20.7278 7.00643 21.2372 7.93706C21.7466 8.86769 21.7466 9.9903 21.7466 12.2355V13.7278C21.7466 17.5551 21.7466 19.4687 20.5971 20.6577C19.4477 21.8467 17.5977 21.8467 13.8976 21.8467H9.97315C6.27311 21.8467 4.42309 21.8467 3.27363 20.6577C2.12418 19.4687 2.12418 17.5551 2.12418 13.7278V12.2355Z" stroke="#142129" stroke-width="1.17735"/>
<path d="M14.8787 17.9222H8.992" stroke="#142129" stroke-width="1.17735" stroke-linecap="round"/>
</svg>
