<svg width="25" height="24" viewBox="0 0 25 24" fill="none" xmlns="http://www.w3.org/2000/svg">
<path d="M2.84042 12.0355C2.84042 7.41041 2.84042 5.09788 4.27724 3.66106C5.71406 2.22424 8.02659 2.22424 12.6516 2.22424C17.2767 2.22424 19.5892 2.22424 21.026 3.66106C22.4628 5.09788 22.4628 7.41041 22.4628 12.0355C22.4628 16.6605 22.4628 18.973 21.026 20.4098C19.5892 21.8467 17.2767 21.8467 12.6516 21.8467C8.02659 21.8467 5.71406 21.8467 4.27724 20.4098C2.84042 18.973 2.84042 16.6605 2.84042 12.0355Z" stroke="#142129" stroke-width="1.17735"/>
<path d="M15.595 12.0355L12.6516 12.0355M12.6516 12.0355L9.70825 12.0355M12.6516 12.0355L12.6516 9.0921M12.6516 12.0355L12.6516 14.9788" stroke="#142129" stroke-width="1.17735" stroke-linecap="round"/>
</svg>
