<svg width="17" height="17" viewBox="0 0 17 17" fill="none" xmlns="http://www.w3.org/2000/svg">
<g clip-path="url(#clip0_1_366)">
<path d="M1.41666 8.50002C1.41666 5.16091 1.41666 3.49135 2.45399 2.45402C3.49132 1.41669 5.16088 1.41669 8.5 1.41669C11.8391 1.41669 13.5087 1.41669 14.546 2.45402C15.5833 3.49135 15.5833 5.16091 15.5833 8.50002C15.5833 11.8391 15.5833 13.5087 14.546 14.546C13.5087 15.5834 11.8391 15.5834 8.5 15.5834C5.16088 15.5834 3.49132 15.5834 2.45399 14.546C1.41666 13.5087 1.41666 11.8391 1.41666 8.50002Z" stroke="#142129" stroke-width="0.85"/>
<path d="M10.625 8.50002L8.5 8.50002M8.5 8.50002L6.375 8.50002M8.5 8.50002L8.5 6.375M8.5 8.50002L8.5 10.625" stroke="#142129" stroke-width="0.85" stroke-linecap="round"/>
</g>
<defs>
<clipPath id="clip0_1_366">
<rect width="17" height="17" fill="white"/>
</clipPath>
</defs>
</svg>
