<svg width="13" height="13" viewBox="0 0 13 13" fill="none" xmlns="http://www.w3.org/2000/svg">
<g clip-path="url(#clip0_1_308)">
<path d="M7.90607 10.3909C7.299 11.0716 6.41599 11.4579 5.47779 11.4579C3.67498 11.4579 2.2033 9.98622 2.2033 8.18341C2.2033 7.13484 2.6816 6.15985 3.54621 5.55278C3.69338 5.4424 3.73017 5.24004 3.61979 5.11127C3.50942 4.9641 3.30706 4.92731 3.17829 5.03769C2.1849 5.77353 1.57784 6.95087 1.57784 8.2018C1.57784 10.3725 3.34385 12.1202 5.49619 12.1202C6.61835 12.1202 7.66692 11.6603 8.40276 10.8324C8.51314 10.7037 8.51314 10.5013 8.38437 10.3725C8.2372 10.2622 8.03484 10.2622 7.90607 10.3909Z" fill="#142129"/>
<path d="M10.6287 9.78383L9.76411 9.85741L9.52496 7.04282C9.50657 6.80367 9.32261 6.61971 9.08346 6.61971H5.1835L5.07313 4.8353H7.72215C7.90611 4.8353 8.05328 4.68813 8.05328 4.50417C8.05328 4.32021 7.90611 4.17304 7.72215 4.17304H5.03633L4.99954 3.4188C5.68019 3.36361 6.21368 2.79334 6.21368 2.09429C6.21368 1.35845 5.62501 0.769775 4.88917 0.769775C4.15332 0.769775 3.56465 1.35845 3.56465 2.09429C3.56465 2.62777 3.87738 3.08767 4.33728 3.30843L4.53964 6.82207C4.53964 7.04282 4.742 7.24517 4.98115 7.24517H8.8811L9.12025 10.0966V10.1334C9.15704 10.3357 9.3594 10.5013 9.56176 10.5013H9.58015L10.6655 10.4093C10.8495 10.3909 10.9782 10.2437 10.9599 10.0598C10.9599 9.8942 10.8127 9.76543 10.6287 9.78383ZM4.88917 1.45043C5.25709 1.45043 5.56982 1.76316 5.56982 2.13108C5.56982 2.499 5.25709 2.81173 4.88917 2.81173C4.52124 2.81173 4.20851 2.499 4.20851 2.13108C4.20851 1.76316 4.50285 1.45043 4.88917 1.45043Z" fill="#142129"/>
</g>
<defs>
<clipPath id="clip0_1_308">
<rect width="11.7735" height="11.7735" fill="white" transform="translate(0.382126 0.567383)"/>
</clipPath>
</defs>
</svg>
